<?xml version="1.0" standalone="no"?>
<!DOCTYPE svg PUBLIC "-//W3C//DTD SVG 20010904//EN"
 "http://www.w3.org/TR/2001/REC-SVG-20010904/DTD/svg10.dtd">
<svg version="1.0" xmlns="http://www.w3.org/2000/svg"
 width="714.000000pt" height="714.000000pt" viewBox="0 0 714.000000 714.000000"
 preserveAspectRatio="xMidYMid meet">
<metadata>
Created by potrace 1.11, written by Peter Selinger 2001-2013
</metadata>
<g transform="translate(0.000000,714.000000) scale(0.100000,-0.100000)"
fill="#000000" stroke="none">
<path d="M6905 6664 c-95 -32 -203 -54 -278 -56 -64 -1 -174 19 -183 34 -3 4
-20 8 -38 8 -35 0 -51 -20 -61 -75 -3 -16 -7 -39 -9 -50 -4 -21 -17 -96 -22
-130 -2 -11 -6 -36 -9 -55 -4 -19 -8 -46 -10 -60 -6 -40 -14 -83 -19 -110 -3
-13 -8 -42 -11 -65 -3 -22 -8 -47 -10 -55 -3 -8 -7 -35 -10 -61 -3 -25 -10
-60 -15 -78 -5 -19 -7 -37 -5 -42 3 -4 1 -10 -5 -14 -6 -4 -8 -10 -5 -15 3 -4
2 -16 -1 -25 -6 -14 -8 -14 -24 3 -48 51 -181 90 -296 87 -312 -10 -504 -237
-380 -449 32 -55 82 -93 149 -113 51 -15 177 -21 227 -9 74 17 109 27 145 41
60 24 108 48 123 63 7 6 17 12 21 12 5 0 29 21 54 46 49 49 62 79 71 159 2 28
16 118 31 200 14 83 28 164 31 180 3 17 7 37 9 45 2 8 7 31 9 50 7 57 18 115
21 118 2 2 44 -8 94 -22 73 -20 108 -24 188 -21 120 3 154 10 230 47 41 20 41
22 73 132 28 101 36 131 44 161 1 6 8 27 15 48 10 30 10 44 1 68 -15 36 -45
37 -145 3z"/>
<path d="M3477 6654 c-1 -1 -54 -4 -117 -8 -126 -7 -169 -12 -246 -27 -28 -5
-64 -12 -80 -15 -50 -9 -167 -45 -208 -65 -22 -10 -45 -19 -52 -19 -7 0 -14
-4 -16 -9 -1 -5 -10 -11 -18 -13 -8 -2 -17 -5 -20 -8 -3 -3 -32 -23 -65 -44
-33 -21 -67 -45 -75 -52 -50 -42 -160 -155 -185 -189 -17 -22 -33 -42 -36 -45
-28 -24 -163 -292 -173 -343 -2 -7 -10 -36 -19 -65 -9 -30 -21 -79 -27 -110
-5 -32 -12 -68 -15 -82 -3 -14 -7 -59 -10 -100 -4 -41 -8 -97 -10 -125 -2 -27
-6 -61 -10 -75 -27 -112 -24 -298 7 -386 10 -29 8 -35 -20 -65 -18 -19 -32
-37 -32 -41 0 -4 -6 -13 -12 -20 -35 -36 -93 -180 -115 -285 -8 -39 -8 -220 1
-268 24 -132 86 -268 165 -356 l48 -54 0 -689 0 -688 -81 -84 c-167 -172 -163
-160 -100 -283 l46 -88 -22 -74 c-12 -40 -24 -85 -26 -99 -3 -14 -9 -47 -14
-75 -6 -27 -12 -81 -15 -120 -2 -38 -5 -70 -6 -70 -1 0 -3 -318 -5 -707 l-2
-708 2138 0 2138 0 -3 697 c-2 384 -6 723 -9 753 -15 119 -24 173 -38 225 -6
22 -12 45 -13 50 -7 31 -62 157 -89 200 -35 58 -83 123 -109 147 -18 16 -18
18 7 39 30 26 33 59 9 87 -28 31 -281 212 -298 212 -2 0 -33 18 -68 40 l-64
40 0 1073 c-1 970 -5 1283 -17 1357 -2 14 -7 52 -10 85 -6 62 -9 81 -27 175
-6 30 -12 66 -14 80 -2 14 -11 47 -19 74 -8 27 -13 53 -10 58 3 4 0 8 -7 8 -7
0 -10 3 -6 6 10 11 -46 156 -108 279 -62 123 -132 221 -225 314 -78 78 -197
171 -219 171 -5 0 -11 4 -13 8 -4 9 -141 76 -178 87 -14 4 -29 11 -35 15 -5 4
-41 15 -80 25 -38 10 -113 38 -165 62 -133 62 -125 59 -230 92 -87 27 -146 42
-225 56 -16 3 -41 8 -54 11 -61 13 -383 36 -394 28z"/>
<path d="M1495 5009 c-11 -6 -33 -27 -48 -47 -34 -45 -130 -145 -183 -191
-161 -140 -296 -204 -451 -210 -21 -1 -32 -55 -18 -87 8 -16 23 -56 34 -89 11
-33 29 -85 41 -115 12 -30 23 -59 24 -65 2 -5 6 -19 11 -30 32 -84 68 -182 70
-190 1 -5 5 -17 8 -25 4 -8 34 -91 67 -185 34 -93 65 -179 69 -190 18 -44 50
-131 56 -154 7 -22 5 -23 -16 -16 -36 12 -181 15 -230 4 -46 -10 -55 -13 -132
-47 -26 -12 -50 -21 -53 -21 -4 0 -10 -3 -13 -8 -3 -4 -26 -21 -51 -37 -43
-28 -131 -112 -179 -170 -49 -60 -105 -207 -103 -271 2 -86 36 -165 95 -224
126 -128 274 -140 464 -36 34 19 74 44 90 57 36 29 162 156 188 189 40 51 97
152 122 217 24 63 24 177 1 212 -16 24 -63 143 -93 235 -11 35 -146 404 -162
445 -4 8 -7 18 -8 23 -2 4 -4 9 -5 12 -1 3 -3 8 -5 13 -1 4 -5 16 -9 27 -33
88 -34 83 10 91 110 18 303 84 312 106 2 4 12 8 23 8 10 0 19 4 19 8 0 5 10
14 23 19 64 31 213 185 222 232 2 11 -3 40 -10 65 -8 25 -12 46 -9 46 3 0 0 8
-5 18 -5 9 -12 31 -15 47 -3 17 -12 57 -21 90 -8 33 -17 69 -19 80 -20 88 -40
143 -57 158 -24 19 -26 20 -54 6z"/>
</g>
</svg>
