<svg width="357" height="347" viewBox="0 0 357 347" fill="none" xmlns="http://www.w3.org/2000/svg">
<path d="M109.688 149.062V272.812H272.812C272.812 272.812 272.812 165.938 272.812 120.938C272.812 75.9375 261.562 30.9375 199.688 30.9375L109.688 149.062Z" fill="#826EC8"/>
<path d="M216.563 160.312V212.366H216.568C300.938 234.169 306.563 251.151 306.563 289.688V351.562H98.4375C98.4375 351.562 98.4375 320.597 98.4375 296.336C98.4375 255.937 98.1282 233.438 165.628 216.562V194.062L216.563 160.312Z" fill="#FFB4BE"/>
<path d="M98.4375 340.312V351.562H306.562C306.562 351.562 306.562 348.126 306.562 340.312H98.4375Z" fill="#F0A0AA"/>
<path d="M120.938 351.562C120.938 343.699 115.436 333.084 112.129 323.561L112.489 324.141C109.361 324.765 104.023 325.384 98.4375 324.039V323.561C98.4375 314.803 98.4375 305.128 98.4375 296.336C98.4375 261.439 98.2069 239.895 141.643 223.802L143.438 233.437C143.438 233.437 154.688 244.688 210.938 233.437L242.938 218.447C302.169 237.296 306.563 255.634 306.563 289.688V320.406C269.966 328.106 255.938 323.404 255.938 323.404V323.438V351.562H120.938Z" fill="#F0F0E6"/>
<path d="M118.519 340.312C119.919 344.357 120.938 348.216 120.938 351.562H255.938V340.312H118.519Z" fill="#DCDCD2"/>
<path d="M270.079 327.639C259.92 327.639 255.375 326.188 255.043 326.076C253.569 325.586 252.776 323.989 253.271 322.515C253.766 321.047 255.347 320.243 256.815 320.743C257.046 320.816 271.035 325.013 305.983 317.661C307.496 317.317 308.998 318.308 309.313 319.838C309.634 321.356 308.661 322.847 307.142 323.168C290.509 326.661 278.409 327.639 270.079 327.639Z" fill="#DCDCD2"/>
<path d="M255.938 354.375C254.385 354.375 253.125 353.115 253.125 351.562V295.251C253.125 293.698 254.385 292.438 255.938 292.438C257.49 292.438 258.75 293.698 258.75 295.251V351.562C258.75 353.115 257.49 354.375 255.938 354.375Z" fill="#DCDCD2"/>
<path d="M120.938 354.375C119.385 354.375 118.125 353.115 118.125 351.562C118.125 346.483 115.369 339.587 112.702 332.921C109.834 325.761 106.875 318.358 106.875 312.187C106.875 300.532 117.861 272.936 118.327 271.766C118.907 270.321 120.555 269.623 121.984 270.202C123.424 270.782 124.127 272.419 123.553 273.853C123.441 274.129 112.5 301.607 112.5 312.187C112.5 317.267 115.256 324.163 117.923 330.829C120.791 337.989 123.75 345.392 123.75 351.562C123.75 353.115 122.49 354.375 120.938 354.375Z" fill="#DCDCD2"/>
<path d="M105.469 327.662C103.067 327.662 100.457 327.42 97.7738 326.779C96.2606 326.419 95.3325 324.894 95.6982 323.381C96.0638 321.868 97.5938 320.957 99.0957 321.306C104.321 322.571 109.384 321.891 111.938 321.384C113.456 321.069 114.941 322.065 115.245 323.589C115.549 325.114 114.564 326.593 113.04 326.903C111.021 327.308 108.405 327.662 105.469 327.662Z" fill="#DCDCD2"/>
<path d="M149.062 312.188C126.562 295.312 120.938 261.562 120.938 261.562L143.438 278.438L171.562 312.188H149.062Z" fill="#F0DC78"/>
<path d="M222.188 272.812C222.188 272.812 194.062 300.938 171.562 312.188H149.062L177.188 284.062L222.188 272.812Z" fill="#F0DC78"/>
<path d="M171.562 315H149.063C147.926 315 146.897 314.314 146.464 313.262C146.025 312.21 146.267 311.001 147.071 310.196L175.196 282.071C175.556 281.711 176.012 281.458 176.501 281.329L221.501 270.079C222.722 269.781 224.004 270.326 224.629 271.423C225.253 272.52 225.068 273.898 224.168 274.798C223.003 275.957 195.457 303.373 172.811 314.702C172.429 314.893 172.001 315 171.562 315ZM155.852 309.375H170.893C185.563 301.877 202.77 287.055 212.49 278.134L178.627 286.599L155.852 309.375Z" fill="#C8B450"/>
<path d="M149.062 312.188H171.562V329.062H149.062V312.188Z" fill="#F0DC78"/>
<path d="M149.062 329.062C143.437 334.688 143.336 351.562 143.336 351.562H177.188C177.188 351.562 177.188 334.688 171.562 329.062H149.062Z" fill="#F0DC78"/>
<path d="M144.444 340.312C143.376 346.073 143.336 351.562 143.336 351.562H177.188C177.188 351.562 177.182 346.073 176.141 340.312H144.444Z" fill="#DCC864"/>
<path d="M149.062 315C148.472 315 147.881 314.814 147.375 314.438C124.239 297.084 118.401 263.447 118.164 262.024C117.973 260.893 118.496 259.757 119.475 259.155C120.459 258.57 121.702 258.621 122.625 259.307L145.125 276.182C145.299 276.311 145.462 276.469 145.597 276.632L163.496 298.108C164.43 299.228 164.351 300.87 163.322 301.899L151.048 314.173C150.508 314.719 149.782 315 149.062 315ZM125.466 268.476C128.317 278.64 135.079 296.972 148.843 308.436L157.528 299.751L141.486 280.496L125.466 268.476Z" fill="#C8B450"/>
<path d="M171.562 331.875H149.062C147.51 331.875 146.25 330.615 146.25 329.062V312.188C146.25 310.635 147.51 309.375 149.062 309.375H171.562C173.115 309.375 174.375 310.635 174.375 312.188V329.062C174.375 330.615 173.115 331.875 171.562 331.875ZM151.875 326.25H168.75V315H151.875V326.25Z" fill="#C8B450"/>
<path d="M177.188 354.375H143.336C142.588 354.375 141.868 354.077 141.345 353.548C140.822 353.019 140.524 352.294 140.524 351.551C140.535 349.706 140.811 333.343 147.071 327.077C147.6 326.548 148.314 326.25 149.062 326.25H171.562C172.311 326.25 173.025 326.548 173.554 327.071C179.82 333.343 180 349.718 180 351.562C180 353.115 178.74 354.375 177.188 354.375ZM146.25 348.75H174.291C173.987 343.052 172.783 335.402 170.263 331.875H150.356C147.825 335.402 146.593 343.052 146.25 348.75Z" fill="#C8B450"/>
<path d="M143.438 233.438C143.438 233.438 154.688 244.688 210.938 233.438L160.312 300.938L143.438 267.188V233.438Z" fill="#F0F0E6"/>
<path d="M306.562 354.375H98.4375C96.885 354.375 95.625 353.115 95.625 351.562V296.342C95.625 255.909 95.625 231.671 162.81 214.38V194.063C162.81 192.51 164.07 191.25 165.622 191.25C167.175 191.25 168.435 192.51 168.435 194.063V216.563C168.435 217.851 167.558 218.981 166.303 219.291C101.25 235.558 101.25 255.684 101.25 295.785V348.75H303.75V289.688C303.75 253.676 300.015 235.406 215.859 213.66C214.616 213.339 213.75 212.22 213.75 210.938V178.538C213.75 176.985 215.01 175.725 216.562 175.725C218.115 175.725 219.375 176.985 219.375 178.538V208.761C301.179 230.181 309.375 249.047 309.375 289.688V351.562C309.375 353.115 308.115 354.375 306.562 354.375Z" fill="#785AE6"/>
<path d="M160.312 300.938C160.312 300.938 137.812 244.688 154.688 210.938C154.688 210.938 120.938 216.562 98.4375 244.688C98.4375 244.688 104.062 267.188 160.312 300.938Z" fill="#8296DC"/>
<path d="M149.299 229.072C150.221 222.654 151.914 216.489 154.688 210.938C154.688 210.938 120.938 216.562 98.4375 244.687C98.4375 244.687 99.4275 248.434 104.265 255.066C120.465 238.573 140.023 231.592 149.299 229.072Z" fill="#96AAF0"/>
<path d="M155.149 285.244C154.558 283.151 153.956 280.918 153.366 278.539C129.319 268.093 115.211 244.552 109.586 233.201C108.118 234.472 106.673 235.811 105.244 237.223C111.943 250.442 127.817 275.389 155.149 285.244Z" fill="#F0F0E6"/>
<path d="M109.586 233.201C108.118 234.472 106.673 235.811 105.244 237.223C106.847 240.39 108.996 244.238 111.684 248.383C113.203 247.146 114.728 245.947 116.258 244.851C113.389 240.407 111.133 236.323 109.586 233.201Z" fill="#FFFFFA"/>
<path d="M160.312 300.938C160.312 300.938 199.688 222.188 227.812 205.312C227.812 205.312 267.188 216.562 295.312 239.062C295.312 239.062 250.312 272.812 160.312 300.938Z" fill="#8296DC"/>
<path d="M216.562 216.563C216.562 216.563 253.446 227.143 281.318 248.231C290.604 242.573 295.312 239.063 295.312 239.063C267.187 216.563 227.812 205.312 227.812 205.312C222.502 208.502 216.787 213.902 211.011 220.556C212.901 218.998 214.757 217.648 216.562 216.563Z" fill="#96AAF0"/>
<path d="M281.953 229.663C238.269 258.592 189.141 274.472 171.771 279.529C170.392 281.987 169.121 284.299 167.951 286.442C177.362 283.922 236.205 267.283 287.055 233.021C285.373 231.862 283.674 230.743 281.953 229.663Z" fill="#F0F0E6"/>
<path d="M272.571 242.151C277.436 239.242 282.291 236.233 287.061 233.016C285.373 231.862 283.674 230.743 281.953 229.663C277.093 232.881 272.16 235.918 267.21 238.815C269.01 239.889 270.793 241.003 272.571 242.151Z" fill="#FFFFFA"/>
<path d="M160.312 303.75C159.812 303.75 159.311 303.621 158.867 303.351C102.268 269.393 95.9512 246.336 95.7093 245.368C95.4956 244.519 95.6925 243.613 96.2381 242.927C119.149 214.29 152.803 208.395 154.226 208.159C155.256 207.962 156.319 208.412 156.949 209.261C157.579 210.111 157.674 211.247 157.202 212.192C141.092 244.412 162.703 299.34 162.922 299.891C163.372 301.011 163.052 302.293 162.135 303.075C161.612 303.525 160.965 303.75 160.312 303.75ZM101.632 245.222C103.697 249.998 113.827 268.436 154.963 294.345C149.749 278.612 139.843 242.004 149.884 214.965C139.922 217.721 117.883 225.692 101.632 245.222Z" fill="#785AE6"/>
<path d="M160.312 303.75C159.502 303.75 158.715 303.401 158.169 302.76C157.438 301.899 157.292 300.69 157.798 299.678C159.424 296.432 197.871 219.999 226.367 202.899C227.036 202.506 227.846 202.399 228.589 202.607C230.22 203.068 268.83 214.267 297.073 236.863C297.754 237.409 298.142 238.236 298.131 239.102C298.119 239.968 297.703 240.789 297.006 241.313C296.55 241.656 250.588 275.67 161.156 303.621C160.875 303.705 160.594 303.75 160.312 303.75ZM228.223 208.372C205.684 223.014 175.562 277.881 165.926 296.201C237.516 273.06 279.388 246.555 290.576 238.95C266.231 220.657 234.681 210.358 228.223 208.372Z" fill="#785AE6"/>
<path d="M109.688 235.817C108.135 235.817 106.875 234.557 106.875 233.004V149.062C106.875 148.449 107.077 147.848 107.449 147.358L197.449 29.2331C197.983 28.5356 198.81 28.125 199.688 28.125C267.756 28.125 275.625 81.0956 275.625 120.938V224.246C275.625 225.799 274.365 227.059 272.812 227.059C271.26 227.059 270 225.799 270 224.246V120.938C270 61.2169 248.726 34.2675 201.077 33.7556L112.5 150.013V233.004C112.5 234.557 111.24 235.817 109.688 235.817Z" fill="#785AE6"/>
<path d="M125.156 167.22C139.913 167.22 151.875 153.082 151.875 135.641C151.875 118.201 139.913 104.062 125.156 104.062C110.4 104.062 98.4375 118.201 98.4375 135.641C98.4375 153.082 110.4 167.22 125.156 167.22Z" fill="#E678A0"/>
<path d="M125.156 170.033C108.872 170.033 95.625 154.603 95.625 135.641C95.625 116.679 108.872 101.25 125.156 101.25C141.441 101.25 154.688 116.674 154.688 135.636C154.688 154.598 141.441 170.033 125.156 170.033ZM125.156 106.875C111.977 106.875 101.25 119.779 101.25 135.636C101.25 151.498 111.977 164.402 125.156 164.402C138.336 164.402 149.062 151.498 149.062 135.636C149.062 119.779 138.336 106.875 125.156 106.875Z" fill="#785AE6"/>
<path d="M130.016 158.546C119.092 158.546 110.199 148.269 110.199 135.641C110.199 123.013 119.092 112.736 130.016 112.736C140.94 112.736 149.827 123.013 149.827 135.641C149.827 148.269 140.94 158.546 130.016 158.546ZM130.016 118.356C122.192 118.356 115.824 126.107 115.824 135.636C115.824 145.164 122.192 152.916 130.016 152.916C137.841 152.916 144.202 145.164 144.202 135.636C144.202 126.107 137.841 118.356 130.016 118.356Z" fill="#785AE6"/>
<path d="M120.938 75.9375V154.688C120.938 176.434 138.566 194.062 160.312 194.062H188.438C207.079 194.062 222.188 178.954 222.188 160.312H233.438C242.758 160.312 250.312 152.758 250.312 143.438V137.812C250.312 128.492 242.758 120.938 233.438 120.938H222.188V75.9375H120.938Z" fill="#FFC8D2"/>
<path d="M215.859 181.35C215.291 181.35 214.718 181.181 214.223 180.821C212.957 179.921 212.67 178.161 213.57 176.901C217.316 171.681 219.375 165.791 219.375 160.312C219.375 158.76 220.635 157.5 222.188 157.5H233.438C241.189 157.5 247.5 151.194 247.5 143.437V137.812C247.5 130.056 241.189 123.75 233.438 123.75H223.251C221.698 123.75 220.438 122.49 220.438 120.937C220.438 119.385 221.698 118.125 223.251 118.125H233.438C244.294 118.125 253.125 126.956 253.125 137.812V143.437C253.125 154.294 244.294 163.125 233.438 163.125H224.865C224.303 168.941 222.013 174.786 218.154 180.174C217.603 180.945 216.737 181.35 215.859 181.35Z" fill="#785AE6"/>
<path d="M177.188 196.875H160.312C137.047 196.875 118.125 177.952 118.125 154.688V98.4375C118.125 96.885 119.385 95.625 120.938 95.625C122.49 95.625 123.75 96.885 123.75 98.4375V154.688C123.75 174.848 140.153 191.25 160.312 191.25H177.188C178.74 191.25 180 192.51 180 194.062C180 195.615 178.74 196.875 177.188 196.875Z" fill="#785AE6"/>
<path d="M177.188 146.25C175.635 146.25 174.375 144.99 174.375 143.438V126.562C174.375 125.01 175.635 123.75 177.188 123.75C178.74 123.75 180 125.01 180 126.562V143.438C180 144.99 178.74 146.25 177.188 146.25Z" fill="#785AE6"/>
<path d="M132.188 146.25C130.635 146.25 129.375 144.99 129.375 143.438V126.562C129.375 125.01 130.635 123.75 132.188 123.75C133.74 123.75 135 125.01 135 126.562V143.438C135 144.99 133.74 146.25 132.188 146.25Z" fill="#785AE6"/>
<path d="M149.062 157.5C139.281 157.5 132.795 150.232 132.795 145.429C132.795 144.067 133.29 142.836 134.196 141.969C134.826 141.351 135.967 140.625 137.812 140.625C139.438 140.625 143.629 133.954 146.396 125.674C146.886 124.206 148.483 123.396 149.951 123.896C151.425 124.391 152.218 125.983 151.729 127.457C149.923 132.879 145.131 145.204 138.639 146.194C138.876 146.722 139.331 147.448 140.091 148.236C141.148 149.327 144.135 151.875 149.062 151.875C150.615 151.875 151.875 153.135 151.875 154.687C151.875 156.24 150.615 157.5 149.062 157.5Z" fill="#785AE6"/>
<path d="M160.312 174.375C146.408 174.375 146.25 166.286 146.25 165.937C146.25 164.385 147.51 163.125 149.062 163.125C150.57 163.125 151.802 164.312 151.875 165.802C152.032 166.832 153.99 168.75 160.312 168.75C172.856 168.75 174.409 165.572 174.42 165.538C174.42 163.986 175.657 162.923 177.21 162.923C178.762 162.923 180 164.385 180 165.937C180 167.917 178.583 174.375 160.312 174.375ZM151.875 165.937H151.931H151.875Z" fill="#785AE6"/>
<path d="M177.188 135.231C176.484 135.231 175.781 134.972 175.241 134.443C174.122 133.369 174.083 131.586 175.163 130.466L180.788 124.611C181.868 123.502 183.645 123.446 184.764 124.532C185.884 125.606 185.923 127.389 184.843 128.509L179.218 134.364C178.661 134.938 177.924 135.231 177.188 135.231Z" fill="#785AE6"/>
<path d="M132.187 135.231C131.451 135.231 130.714 134.938 130.162 134.37L124.537 128.514C123.463 127.395 123.497 125.612 124.616 124.537C125.73 123.452 127.519 123.503 128.593 124.616L134.218 130.472C135.292 131.591 135.259 133.374 134.139 134.449C133.594 134.972 132.891 135.231 132.187 135.231Z" fill="#785AE6"/>
<path d="M194.063 123.75C192.887 123.75 191.79 123.002 191.396 121.826C189.428 115.92 185.698 112.539 180.304 111.769C176.153 111.167 172.485 112.343 172.451 112.354C170.961 112.854 169.386 112.039 168.896 110.576C168.407 109.103 169.2 107.511 170.674 107.016C170.871 106.948 175.584 105.407 181.103 106.194C186.379 106.948 193.371 109.963 196.729 120.043C197.218 121.517 196.425 123.109 194.951 123.604C194.653 123.705 194.355 123.75 194.063 123.75Z" fill="#785AE6"/>
<path d="M120.937 119.959C120.448 119.959 119.953 119.835 119.497 119.565C118.164 118.766 117.731 117.039 118.524 115.706C125.066 104.749 137.751 106.819 138.296 106.92C139.826 107.184 140.85 108.641 140.586 110.171C140.321 111.696 138.892 112.753 137.34 112.461C136.896 112.376 127.873 111.015 123.356 118.586C122.822 119.469 121.894 119.959 120.937 119.959Z" fill="#785AE6"/>
<path d="M199.687 42.1875C217.294 52.2506 205.312 81.5625 171.562 92.8125C137.812 104.062 120.937 109.688 120.937 120.938C120.937 120.938 98.4375 115.312 109.687 81.5625C120.937 47.8125 160.312 19.6875 199.687 42.1875Z" fill="#826EC8"/>
<path d="M194.062 70.3125C194.062 70.3125 194.062 115.312 222.188 120.938H233.438C233.438 120.938 233.438 92.8125 233.438 75.9375C233.438 59.0625 205.2 47.2275 205.2 47.2275L194.062 70.3125Z" fill="#826EC8"/>
<path d="M233.437 123.75H222.187C200.064 119.385 193.798 94.5394 191.976 80.1112C191.779 78.57 192.876 77.1637 194.417 76.9669C195.969 76.7194 197.364 77.8669 197.561 79.4081C199.192 92.3344 204.626 114.559 222.744 118.181L230.625 118.142V75.9375C230.625 61.1325 204.373 49.9275 204.114 49.815C202.68 49.2187 202.005 47.565 202.607 46.1362C203.209 44.7019 204.846 44.0269 206.286 44.6287C207.512 45.1406 236.25 57.4031 236.25 75.9375V120.937C236.25 122.49 234.99 123.75 233.437 123.75Z" fill="#785AE6"/>
<path d="M233.438 42.1875C210.938 19.6875 171.563 19.6875 149.063 25.3125C127.232 30.7688 108.129 52.8975 108.129 86.9175L108.152 86.9062C108.579 85.1962 109.063 83.4356 109.688 81.5625C120.938 47.8125 160.313 19.6875 199.688 42.1875C202.461 43.7738 204.418 45.8775 205.757 48.2681C216.703 59.3719 222.188 70.8469 222.188 109.688H250.313C250.313 109.688 255.938 64.6875 233.438 42.1875Z" fill="#E678A0"/>
<path d="M109.688 81.5625C109.749 81.3713 109.845 81.1856 109.907 80.9944C115.116 56.7394 131.164 41.04 149.063 36.5625C171.563 30.9375 210.938 30.9375 233.438 53.4375C246.752 66.7519 250.194 87.9019 250.808 102.988C251.398 89.6288 250.628 59.3775 233.438 42.1875C210.938 19.6875 171.563 19.6875 149.063 25.3125C127.232 30.7688 108.129 52.8975 108.129 86.9175L108.152 86.9062C108.574 85.2019 109.063 83.4413 109.688 81.5625Z" fill="#FA8CB4"/>
<path d="M250.313 112.5H222.188C220.635 112.5 219.375 111.24 219.375 109.688C219.375 72.18 214.425 60.9019 203.321 49.8038C202.224 48.7069 202.224 46.9238 203.321 45.8269C204.418 44.73 206.201 44.73 207.298 45.8269C219.246 57.7688 224.73 69.6038 224.989 106.881H247.748C248.484 97.3406 249.767 62.4994 231.446 44.1844C208.311 21.0488 167.884 23.5069 149.743 28.0519C130.427 32.8725 110.942 52.9538 110.942 86.9288C110.942 88.4813 109.682 89.7413 108.129 89.7413C106.577 89.7413 105.317 88.4813 105.317 86.9288C105.317 49.9219 126.945 27.9506 148.382 22.59C175.118 15.9075 213.778 18.5625 235.429 40.2075C258.632 63.4106 253.344 108.152 253.108 110.048C252.928 111.443 251.73 112.5 250.313 112.5Z" fill="#785AE6"/>
<path d="M120.937 123.75C120.707 123.75 120.482 123.722 120.257 123.666C119.914 123.576 111.802 121.461 107.049 112.804C102.617 104.721 102.606 93.915 107.021 80.6681C113.895 60.0525 130.224 42.6375 149.642 35.2181C166.708 28.6931 184.489 30.2681 201.088 39.7406C207.832 43.5994 211.252 50.3325 210.471 58.2131C209.216 70.8694 196.976 87.3056 172.457 95.4788C141.047 105.947 123.75 111.713 123.75 120.938C123.75 121.804 123.351 122.625 122.67 123.159C122.169 123.548 121.556 123.75 120.937 123.75ZM170.572 36.9112C164.227 36.9112 157.882 38.0981 151.644 40.4831C133.762 47.3119 118.704 63.3938 112.354 82.4569C108.456 94.1513 108.332 103.455 111.982 110.104C113.962 113.709 116.674 115.802 118.716 116.955C122.046 106.358 139.393 100.575 170.674 90.1462C192.684 82.8112 203.833 68.1694 204.868 57.6675C205.267 53.6625 204.446 48.1556 198.292 44.64C189.304 39.4931 179.944 36.9112 170.572 36.9112Z" fill="#785AE6"/>
<path d="M232.031 167.22C246.788 167.22 258.75 153.082 258.75 135.641C258.75 118.201 246.788 104.062 232.031 104.062C217.275 104.062 205.312 118.201 205.312 135.641C205.312 153.082 217.275 167.22 232.031 167.22Z" fill="#E678A0"/>
<path d="M232.031 170.033C215.747 170.033 202.5 154.603 202.5 135.641C202.5 116.679 215.747 101.25 232.031 101.25C248.316 101.25 261.562 116.674 261.562 135.636C261.562 154.598 248.316 170.033 232.031 170.033ZM232.031 106.875C218.852 106.875 208.125 119.779 208.125 135.636C208.125 151.498 218.852 164.402 232.031 164.402C245.211 164.402 255.938 151.498 255.938 135.636C255.938 119.779 245.211 106.875 232.031 106.875Z" fill="#785AE6"/>
<path d="M236.891 155.734C246.282 155.734 253.896 146.738 253.896 135.641C253.896 124.544 246.282 115.549 236.891 115.549C227.5 115.549 219.887 124.544 219.887 135.641C219.887 146.738 227.5 155.734 236.891 155.734Z" fill="#FFFA96"/>
<path d="M236.891 158.546C225.967 158.546 217.074 148.269 217.074 135.641C217.074 123.013 225.967 112.736 236.891 112.736C247.815 112.736 256.702 123.013 256.702 135.641C256.702 148.269 247.815 158.546 236.891 158.546ZM236.891 118.356C229.067 118.356 222.699 126.107 222.699 135.636C222.699 145.164 229.067 152.916 236.891 152.916C244.716 152.916 251.077 145.164 251.077 135.636C251.077 126.107 244.716 118.356 236.891 118.356Z" fill="#785AE6"/>
<path d="M64.6876 188.438C73.5807 197.331 40.7419 237.403 25.3126 216.562C13.2469 200.261 47.8126 171.563 64.6876 188.438Z" fill="#E678A0"/>
<path d="M36.2756 225.309C31.0331 225.309 26.505 222.902 23.0512 218.239C16.0537 208.783 21.8531 196.858 30.7012 189.236C40.7306 180.602 56.2612 176.046 66.6731 186.452C68.4281 188.207 70.0987 191.621 68.0794 197.904C64.485 209.076 51.4012 223.065 39.2681 225.056C38.25 225.225 37.2487 225.309 36.2756 225.309ZM51.9919 186.086C45.8662 186.086 39.3356 189.225 34.38 193.494C27.72 199.232 22.7587 208.372 27.5794 214.886C30.42 218.722 33.9525 220.236 38.3681 219.504C48.2287 217.884 59.76 205.414 62.7356 196.177C63.6075 193.472 63.5962 191.317 62.7075 190.429C59.6362 187.363 55.8956 186.086 51.9919 186.086Z" fill="#785AE6"/>
<path d="M64.6875 191.25C63.54 191.25 62.46 190.541 62.0438 189.399L39.5438 127.524C39.0094 126.062 39.7688 124.448 41.2256 123.919C42.6881 123.39 44.2969 124.138 44.8313 125.601L67.3313 187.476C67.8656 188.938 67.1063 190.553 65.6494 191.081C65.3288 191.194 65.0081 191.25 64.6875 191.25Z" fill="#785AE6"/>
<path d="M48.3244 143.438C48.3244 143.438 70.3125 143.438 81.5625 126.562L75.9375 104.062C75.9375 104.062 59.0625 126.562 42.1875 126.562L48.3244 143.438Z" fill="#E678A0"/>
<path d="M48.3243 146.25C47.1431 146.25 46.0856 145.507 45.6806 144.399L39.5437 127.524C39.2287 126.664 39.3581 125.702 39.8812 124.948C40.4099 124.194 41.2706 123.75 42.1874 123.75C57.4481 123.75 73.5299 102.589 73.6874 102.375C74.3399 101.503 75.4143 101.081 76.4943 101.306C77.5574 101.52 78.4012 102.33 78.6656 103.382L84.2906 125.882C84.4818 126.653 84.3412 127.463 83.9024 128.121C71.9549 146.042 49.2806 146.25 48.3243 146.25ZM46.0799 129.038L50.2537 140.507C55.4737 140.046 70.0143 137.717 78.5249 126.006L74.5537 110.126C69.0524 116.302 58.0106 127.007 46.0799 129.038Z" fill="#785AE6"/>
<path d="M312.064 69.8738C314.482 78.8063 278.854 92.3625 276.637 73.4119C274.905 58.59 307.474 52.9256 312.064 69.8738Z" fill="#FFFA96"/>
<path d="M289.153 85.77C286.65 85.77 284.265 85.4213 282.178 84.6394C277.352 82.8394 274.466 79.065 273.847 73.7381C272.925 65.8912 279.394 59.2537 289.941 57.2175C299.841 55.3106 311.827 58.2244 314.786 69.1369C315.321 71.1056 315.141 74.1825 311.276 77.7038C306.292 82.2375 297.101 85.77 289.153 85.77ZM295.65 62.2912C294.086 62.2912 292.517 62.4431 291.004 62.7356C284.985 63.9 278.797 67.6294 279.433 73.08C279.804 76.2637 281.346 78.3281 284.152 79.3687C290.79 81.855 302.349 78.2156 307.479 73.5469C308.947 72.2081 309.482 71.0831 309.352 70.6106C307.744 64.6763 301.764 62.2912 295.65 62.2912Z" fill="#785AE6"/>
<path d="M312.069 72.6862C311.912 72.6862 311.749 72.675 311.586 72.6412C310.056 72.3769 309.026 70.92 309.296 69.39L317.582 21.6619C317.852 20.1319 319.314 19.0856 320.833 19.3781C322.363 19.6425 323.393 21.0994 323.123 22.6294L314.837 70.3575C314.601 71.7244 313.414 72.6862 312.069 72.6862Z" fill="#785AE6"/>
<path d="M318.094 35.1619C318.094 35.1619 332.128 43.2113 345.487 36.5569L350.134 20.1375C350.134 20.1375 331.127 28.3219 320.355 22.1456L318.094 35.1619Z" fill="#FFFA96"/>
<path d="M333.939 42.0187C324.546 42.0187 317.132 37.8562 316.693 37.6031C315.664 37.0181 315.118 35.8481 315.321 34.6781L317.582 21.6619C317.739 20.7619 318.324 19.9912 319.157 19.6031C319.989 19.2094 320.957 19.2544 321.75 19.71C331.161 25.0931 348.834 17.64 349.02 17.5612C350.027 17.1337 351.174 17.325 351.984 18.0281C352.8 18.7481 353.132 19.8619 352.834 20.9081L348.188 37.3275C347.974 38.0925 347.445 38.7281 346.736 39.0825C342.371 41.2481 337.972 42.0187 333.939 42.0187ZM321.227 33.5587C324.979 35.2069 334.221 38.3681 343.136 34.5544L345.937 24.6319C340.042 26.4544 330.351 28.6031 322.515 26.1337L321.227 33.5587Z" fill="#785AE6"/>
<path d="M216.562 217.361C215.01 217.361 213.75 216.101 213.75 214.549V178.538C213.75 176.985 215.01 175.725 216.562 175.725C218.115 175.725 219.375 176.985 219.375 178.538V214.543C219.375 216.101 218.115 217.361 216.562 217.361Z" fill="#785AE6"/>
</svg>
