<svg width="139" height="24" viewBox="0 0 139 24" fill="none" xmlns="http://www.w3.org/2000/svg">
<path d="M1.547 4.964H5.78C6.55067 4.964 7.18533 5.07167 7.684 5.287C8.18267 5.491 8.57367 5.75733 8.857 6.086C9.15167 6.40333 9.35567 6.766 9.469 7.174C9.58233 7.57067 9.639 7.956 9.639 8.33C9.639 8.71533 9.571 9.08933 9.435 9.452C9.299 9.80333 9.10067 10.1263 8.84 10.421C8.59067 10.7043 8.279 10.948 7.905 11.152C7.54233 11.3447 7.13433 11.4637 6.681 11.509L10.098 17H8.058L4.998 11.696H3.179V17H1.547V4.964ZM3.179 10.268H5.321C5.63833 10.268 5.95 10.2453 6.256 10.2C6.57333 10.1433 6.851 10.047 7.089 9.911C7.33833 9.775 7.53667 9.58233 7.684 9.333C7.83133 9.07233 7.905 8.738 7.905 8.33C7.905 7.922 7.83133 7.59333 7.684 7.344C7.53667 7.08333 7.33833 6.885 7.089 6.749C6.851 6.613 6.57333 6.52233 6.256 6.477C5.95 6.42033 5.63833 6.392 5.321 6.392H3.179V10.268ZM12.7046 13.532C12.7046 13.8833 12.7782 14.2063 12.9256 14.501C13.0842 14.7843 13.2882 15.028 13.5376 15.232C13.7869 15.436 14.0759 15.5947 14.4046 15.708C14.7332 15.8213 15.0732 15.878 15.4246 15.878C15.9006 15.878 16.3142 15.7703 16.6656 15.555C17.0169 15.3283 17.3399 15.0337 17.6346 14.671L18.7906 15.555C17.9406 16.6543 16.7506 17.204 15.2206 17.204C14.5859 17.204 14.0079 17.0963 13.4866 16.881C12.9766 16.6657 12.5402 16.371 12.1776 15.997C11.8262 15.6117 11.5542 15.164 11.3616 14.654C11.1689 14.1327 11.0726 13.5717 11.0726 12.971C11.0726 12.3703 11.1746 11.815 11.3786 11.305C11.5939 10.7837 11.8829 10.336 12.2456 9.962C12.6196 9.57667 13.0616 9.27633 13.5716 9.061C14.0816 8.84567 14.6369 8.738 15.2376 8.738C15.9516 8.738 16.5522 8.86267 17.0396 9.112C17.5382 9.36133 17.9462 9.69 18.2636 10.098C18.5809 10.4947 18.8076 10.948 18.9436 11.458C19.0909 11.9567 19.1646 12.4667 19.1646 12.988V13.532H12.7046ZM17.5326 12.308C17.5212 11.968 17.4646 11.6563 17.3626 11.373C17.2719 11.0897 17.1302 10.846 16.9376 10.642C16.7449 10.4267 16.5012 10.2623 16.2066 10.149C15.9232 10.0243 15.5889 9.962 15.2036 9.962C14.8296 9.962 14.4839 10.0357 14.1666 10.183C13.8606 10.319 13.5999 10.5003 13.3846 10.727C13.1692 10.9537 12.9992 11.2087 12.8746 11.492C12.7612 11.764 12.7046 12.036 12.7046 12.308H17.5326ZM20.9949 8.942H22.4229V10.2H22.4569C22.4909 10.0867 22.5759 9.945 22.7119 9.775C22.8592 9.605 23.0405 9.44633 23.2559 9.299C23.4825 9.14033 23.7432 9.01 24.0379 8.908C24.3439 8.79467 24.6782 8.738 25.0409 8.738C25.6415 8.738 26.1459 8.86267 26.5539 9.112C26.9619 9.36133 27.2962 9.73533 27.5569 10.234C27.8175 9.73533 28.1859 9.36133 28.6619 9.112C29.1379 8.86267 29.6195 8.738 30.1069 8.738C30.7302 8.738 31.2402 8.84 31.6369 9.044C32.0335 9.248 32.3452 9.52 32.5719 9.86C32.7985 10.1887 32.9515 10.5683 33.0309 10.999C33.1215 11.4183 33.1669 11.8547 33.1669 12.308V17H31.6369V12.512C31.6369 12.206 31.6142 11.9113 31.5689 11.628C31.5349 11.3447 31.4555 11.0953 31.3309 10.88C31.2062 10.6647 31.0305 10.4947 30.8039 10.37C30.5772 10.234 30.2769 10.166 29.9029 10.166C29.1662 10.166 28.6392 10.3927 28.3219 10.846C28.0045 11.2993 27.8459 11.883 27.8459 12.597V17H26.3159V12.784C26.3159 12.3987 26.2932 12.0473 26.2479 11.73C26.2139 11.4127 26.1345 11.1407 26.0099 10.914C25.8965 10.676 25.7265 10.4947 25.4999 10.37C25.2845 10.234 24.9899 10.166 24.6159 10.166C24.3439 10.166 24.0775 10.2227 23.8169 10.336C23.5675 10.438 23.3465 10.5967 23.1539 10.812C22.9612 11.0273 22.8082 11.305 22.6949 11.645C22.5815 11.9737 22.5249 12.3647 22.5249 12.818V17H20.9949V8.942ZM36.7124 12.971C36.7124 13.379 36.7748 13.7587 36.8994 14.11C37.0241 14.45 37.1998 14.7447 37.4264 14.994C37.6531 15.232 37.9308 15.4247 38.2594 15.572C38.5881 15.708 38.9564 15.776 39.3644 15.776C39.7724 15.776 40.1408 15.708 40.4694 15.572C40.7981 15.4247 41.0758 15.232 41.3024 14.994C41.5291 14.7447 41.7048 14.45 41.8294 14.11C41.9541 13.7587 42.0164 13.379 42.0164 12.971C42.0164 12.563 41.9541 12.189 41.8294 11.849C41.7048 11.4977 41.5291 11.203 41.3024 10.965C41.0758 10.7157 40.7981 10.523 40.4694 10.387C40.1408 10.2397 39.7724 10.166 39.3644 10.166C38.9564 10.166 38.5881 10.2397 38.2594 10.387C37.9308 10.523 37.6531 10.7157 37.4264 10.965C37.1998 11.203 37.0241 11.4977 36.8994 11.849C36.7748 12.189 36.7124 12.563 36.7124 12.971ZM35.0804 12.971C35.0804 12.3817 35.1881 11.832 35.4034 11.322C35.6301 10.812 35.9361 10.3643 36.3214 9.979C36.7068 9.59367 37.1601 9.29333 37.6814 9.078C38.2028 8.85133 38.7638 8.738 39.3644 8.738C39.9651 8.738 40.5261 8.85133 41.0474 9.078C41.5688 9.29333 42.0221 9.59367 42.4074 9.979C42.7928 10.3643 43.0931 10.812 43.3084 11.322C43.5351 11.832 43.6484 12.3817 43.6484 12.971C43.6484 13.5603 43.5351 14.1157 43.3084 14.637C43.0931 15.147 42.7928 15.5947 42.4074 15.98C42.0221 16.354 41.5688 16.6543 41.0474 16.881C40.5261 17.0963 39.9651 17.204 39.3644 17.204C38.7638 17.204 38.2028 17.0963 37.6814 16.881C37.1601 16.6543 36.7068 16.354 36.3214 15.98C35.9361 15.5947 35.6301 15.147 35.4034 14.637C35.1881 14.1157 35.0804 13.5603 35.0804 12.971ZM44.5962 8.942H46.3642L48.7782 15.113L51.0902 8.942H52.7222L49.5602 17H47.8772L44.5962 8.942ZM55.2212 13.532C55.2212 13.8833 55.2948 14.2063 55.4422 14.501C55.6008 14.7843 55.8048 15.028 56.0542 15.232C56.3035 15.436 56.5925 15.5947 56.9212 15.708C57.2498 15.8213 57.5898 15.878 57.9412 15.878C58.4172 15.878 58.8308 15.7703 59.1822 15.555C59.5335 15.3283 59.8565 15.0337 60.1512 14.671L61.3072 15.555C60.4572 16.6543 59.2672 17.204 57.7372 17.204C57.1025 17.204 56.5245 17.0963 56.0032 16.881C55.4932 16.6657 55.0568 16.371 54.6942 15.997C54.3428 15.6117 54.0708 15.164 53.8782 14.654C53.6855 14.1327 53.5892 13.5717 53.5892 12.971C53.5892 12.3703 53.6912 11.815 53.8952 11.305C54.1105 10.7837 54.3995 10.336 54.7622 9.962C55.1362 9.57667 55.5782 9.27633 56.0882 9.061C56.5982 8.84567 57.1535 8.738 57.7542 8.738C58.4682 8.738 59.0688 8.86267 59.5562 9.112C60.0548 9.36133 60.4628 9.69 60.7802 10.098C61.0975 10.4947 61.3242 10.948 61.4602 11.458C61.6075 11.9567 61.6812 12.4667 61.6812 12.988V13.532H55.2212ZM60.0492 12.308C60.0378 11.968 59.9812 11.6563 59.8792 11.373C59.7885 11.0897 59.6468 10.846 59.4542 10.642C59.2615 10.4267 59.0178 10.2623 58.7232 10.149C58.4398 10.0243 58.1055 9.962 57.7202 9.962C57.3462 9.962 57.0005 10.0357 56.6832 10.183C56.3772 10.319 56.1165 10.5003 55.9012 10.727C55.6858 10.9537 55.5158 11.2087 55.3912 11.492C55.2778 11.764 55.2212 12.036 55.2212 12.308H60.0492ZM63.5115 8.942H65.0415V10.183H65.0755C65.1775 9.96767 65.3135 9.775 65.4835 9.605C65.6535 9.42367 65.8405 9.27067 66.0445 9.146C66.2598 9.02133 66.4921 8.925 66.7415 8.857C66.9908 8.77767 67.2401 8.738 67.4895 8.738C67.7388 8.738 67.9655 8.772 68.1695 8.84L68.1015 10.489C67.9768 10.455 67.8521 10.4267 67.7275 10.404C67.6028 10.3813 67.4781 10.37 67.3535 10.37C66.6055 10.37 66.0331 10.5797 65.6365 10.999C65.2398 11.4183 65.0415 12.07 65.0415 12.954V17H63.5115V8.942ZM78.8529 10.268H76.6599V13.923C76.6599 14.1497 76.6656 14.3763 76.6769 14.603C76.6882 14.8183 76.7279 15.0167 76.7959 15.198C76.8752 15.368 76.9886 15.5097 77.1359 15.623C77.2946 15.725 77.5212 15.776 77.8159 15.776C77.9972 15.776 78.1842 15.759 78.3769 15.725C78.5696 15.691 78.7452 15.6287 78.9039 15.538V16.932C78.7226 17.034 78.4846 17.102 78.1899 17.136C77.9066 17.1813 77.6856 17.204 77.5269 17.204C76.9376 17.204 76.4786 17.1247 76.1499 16.966C75.8326 16.796 75.5946 16.5807 75.4359 16.32C75.2886 16.0593 75.1979 15.7703 75.1639 15.453C75.1412 15.1243 75.1299 14.7957 75.1299 14.467V10.268H73.3619V8.942H75.1299V6.681H76.6599V8.942H78.8529V10.268ZM87.9669 17H86.4369V15.759H86.4029C86.2102 16.1897 85.8759 16.541 85.3999 16.813C84.9239 17.0737 84.3742 17.204 83.7509 17.204C83.3542 17.204 82.9802 17.1417 82.6289 17.017C82.2776 16.9037 81.9659 16.7223 81.6939 16.473C81.4332 16.2237 81.2236 15.9063 81.0649 15.521C80.9062 15.1243 80.8269 14.6597 80.8269 14.127V8.942H82.3569V13.702C82.3569 14.076 82.4079 14.399 82.5099 14.671C82.6119 14.9317 82.7479 15.147 82.9179 15.317C83.0879 15.4757 83.2806 15.5947 83.4959 15.674C83.7226 15.742 83.9549 15.776 84.1929 15.776C84.5102 15.776 84.8049 15.725 85.0769 15.623C85.3489 15.521 85.5869 15.3623 85.7909 15.147C85.9949 14.9203 86.1536 14.637 86.2669 14.297C86.3802 13.957 86.4369 13.5547 86.4369 13.09V8.942H87.9669V17ZM98.3482 17H96.8182V15.844H96.7842C96.4895 16.2747 96.0815 16.609 95.5602 16.847C95.0502 17.085 94.5232 17.204 93.9792 17.204C93.3559 17.204 92.7892 17.0963 92.2792 16.881C91.7805 16.6657 91.3499 16.3653 90.9872 15.98C90.6359 15.5947 90.3639 15.147 90.1712 14.637C89.9785 14.127 89.8822 13.5717 89.8822 12.971C89.8822 12.3703 89.9785 11.815 90.1712 11.305C90.3639 10.7837 90.6359 10.336 90.9872 9.962C91.3499 9.57667 91.7805 9.27633 92.2792 9.061C92.7892 8.84567 93.3559 8.738 93.9792 8.738C94.5572 8.738 95.1012 8.86267 95.6112 9.112C96.1212 9.35 96.5122 9.67867 96.7842 10.098H96.8182V4.148H98.3482V17ZM94.1662 15.776C94.5742 15.776 94.9425 15.708 95.2712 15.572C95.5999 15.4247 95.8775 15.232 96.1042 14.994C96.3309 14.7447 96.5065 14.45 96.6312 14.11C96.7559 13.7587 96.8182 13.379 96.8182 12.971C96.8182 12.563 96.7559 12.189 96.6312 11.849C96.5065 11.4977 96.3309 11.203 96.1042 10.965C95.8775 10.7157 95.5999 10.523 95.2712 10.387C94.9425 10.2397 94.5742 10.166 94.1662 10.166C93.7582 10.166 93.3899 10.2397 93.0612 10.387C92.7325 10.523 92.4549 10.7157 92.2282 10.965C92.0015 11.203 91.8259 11.4977 91.7012 11.849C91.5765 12.189 91.5142 12.563 91.5142 12.971C91.5142 13.379 91.5765 13.7587 91.7012 14.11C91.8259 14.45 92.0015 14.7447 92.2282 14.994C92.4549 15.232 92.7325 15.4247 93.0612 15.572C93.3899 15.708 93.7582 15.776 94.1662 15.776ZM101.907 12.971C101.907 13.379 101.969 13.7587 102.094 14.11C102.218 14.45 102.394 14.7447 102.621 14.994C102.847 15.232 103.125 15.4247 103.454 15.572C103.782 15.708 104.151 15.776 104.559 15.776C104.967 15.776 105.335 15.708 105.664 15.572C105.992 15.4247 106.27 15.232 106.497 14.994C106.723 14.7447 106.899 14.45 107.024 14.11C107.148 13.7587 107.211 13.379 107.211 12.971C107.211 12.563 107.148 12.189 107.024 11.849C106.899 11.4977 106.723 11.203 106.497 10.965C106.27 10.7157 105.992 10.523 105.664 10.387C105.335 10.2397 104.967 10.166 104.559 10.166C104.151 10.166 103.782 10.2397 103.454 10.387C103.125 10.523 102.847 10.7157 102.621 10.965C102.394 11.203 102.218 11.4977 102.094 11.849C101.969 12.189 101.907 12.563 101.907 12.971ZM100.275 12.971C100.275 12.3817 100.382 11.832 100.598 11.322C100.824 10.812 101.13 10.3643 101.516 9.979C101.901 9.59367 102.354 9.29333 102.876 9.078C103.397 8.85133 103.958 8.738 104.559 8.738C105.159 8.738 105.72 8.85133 106.242 9.078C106.763 9.29333 107.216 9.59367 107.602 9.979C107.987 10.3643 108.287 10.812 108.503 11.322C108.729 11.832 108.843 12.3817 108.843 12.971C108.843 13.5603 108.729 14.1157 108.503 14.637C108.287 15.147 107.987 15.5947 107.602 15.98C107.216 16.354 106.763 16.6543 106.242 16.881C105.72 17.0963 105.159 17.204 104.559 17.204C103.958 17.204 103.397 17.0963 102.876 16.881C102.354 16.6543 101.901 16.354 101.516 15.98C101.13 15.5947 100.824 15.147 100.598 14.637C100.382 14.1157 100.275 13.5603 100.275 12.971Z" fill="#353B50"/>
<path d="M125 2L124 3H118V5H136V3H130L129 2H125ZM119.365 7L120.893 20.2637C121.025 21.2537 121.877 22 122.875 22H131.123C132.121 22 132.974 21.2549 133.107 20.2559L134.635 7H119.365Z" fill="black"/>
</svg>
