<svg width="152" height="24" viewBox="0 0 152 24" fill="none" xmlns="http://www.w3.org/2000/svg">
<path d="M1.904 14.984C2.19867 15.426 2.57267 15.7547 3.026 15.97C3.49067 16.174 3.96667 16.276 4.454 16.276C4.726 16.276 5.00367 16.2363 5.287 16.157C5.57033 16.0663 5.82533 15.936 6.052 15.766C6.29 15.596 6.48267 15.3863 6.63 15.137C6.77733 14.8877 6.851 14.5987 6.851 14.27C6.851 13.8053 6.70367 13.454 6.409 13.216C6.11433 12.9667 5.746 12.7627 5.304 12.604C4.87333 12.434 4.39733 12.2753 3.876 12.128C3.366 11.9693 2.89 11.754 2.448 11.482C2.01733 11.21 1.65467 10.8473 1.36 10.394C1.06533 9.92933 0.918 9.306 0.918 8.524C0.918 8.17267 0.991667 7.79867 1.139 7.402C1.29767 7.00533 1.54133 6.64267 1.87 6.314C2.19867 5.98533 2.618 5.71333 3.128 5.498C3.64933 5.27133 4.27267 5.158 4.998 5.158C5.65533 5.158 6.28433 5.24867 6.885 5.43C7.48567 5.61133 8.01267 5.97967 8.466 6.535L7.14 7.742C6.936 7.42467 6.647 7.16967 6.273 6.977C5.899 6.78433 5.474 6.688 4.998 6.688C4.54467 6.688 4.165 6.75033 3.859 6.875C3.56433 6.98833 3.32633 7.14133 3.145 7.334C2.96367 7.51533 2.83333 7.71367 2.754 7.929C2.686 8.14433 2.652 8.34267 2.652 8.524C2.652 9.034 2.79933 9.425 3.094 9.697C3.38867 9.969 3.75133 10.19 4.182 10.36C4.624 10.53 5.1 10.683 5.61 10.819C6.13133 10.955 6.60733 11.1477 7.038 11.397C7.48 11.635 7.84833 11.9637 8.143 12.383C8.43767 12.791 8.585 13.3577 8.585 14.083C8.585 14.661 8.47167 15.1823 8.245 15.647C8.02967 16.1117 7.735 16.5027 7.361 16.82C6.987 17.1373 6.545 17.381 6.035 17.551C5.525 17.721 4.981 17.806 4.403 17.806C3.63233 17.806 2.90133 17.67 2.21 17.398C1.51867 17.126 0.969 16.7067 0.561 16.14L1.904 14.984ZM11.7583 14.032C11.7583 14.3833 11.832 14.7063 11.9793 15.001C12.138 15.2843 12.342 15.528 12.5913 15.732C12.8406 15.936 13.1296 16.0947 13.4583 16.208C13.787 16.3213 14.127 16.378 14.4783 16.378C14.9543 16.378 15.368 16.2703 15.7193 16.055C16.0706 15.8283 16.3936 15.5337 16.6883 15.171L17.8443 16.055C16.9943 17.1543 15.8043 17.704 14.2743 17.704C13.6396 17.704 13.0616 17.5963 12.5403 17.381C12.0303 17.1657 11.594 16.871 11.2313 16.497C10.88 16.1117 10.608 15.664 10.4153 15.154C10.2226 14.6327 10.1263 14.0717 10.1263 13.471C10.1263 12.8703 10.2283 12.315 10.4323 11.805C10.6476 11.2837 10.9366 10.836 11.2993 10.462C11.6733 10.0767 12.1153 9.77633 12.6253 9.561C13.1353 9.34567 13.6906 9.238 14.2913 9.238C15.0053 9.238 15.606 9.36267 16.0933 9.612C16.592 9.86133 17 10.19 17.3173 10.598C17.6346 10.9947 17.8613 11.448 17.9973 11.958C18.1446 12.4567 18.2183 12.9667 18.2183 13.488V14.032H11.7583ZM16.5863 12.808C16.575 12.468 16.5183 12.1563 16.4163 11.873C16.3256 11.5897 16.184 11.346 15.9913 11.142C15.7986 10.9267 15.555 10.7623 15.2603 10.649C14.977 10.5243 14.6426 10.462 14.2573 10.462C13.8833 10.462 13.5376 10.5357 13.2203 10.683C12.9143 10.819 12.6536 11.0003 12.4383 11.227C12.223 11.4537 12.053 11.7087 11.9283 11.992C11.815 12.264 11.7583 12.536 11.7583 12.808H16.5863ZM20.1676 4.648H21.6976V17.5H20.1676V4.648ZM25.2886 14.032C25.2886 14.3833 25.3622 14.7063 25.5096 15.001C25.6682 15.2843 25.8722 15.528 26.1216 15.732C26.3709 15.936 26.6599 16.0947 26.9886 16.208C27.3172 16.3213 27.6572 16.378 28.0086 16.378C28.4846 16.378 28.8982 16.2703 29.2496 16.055C29.6009 15.8283 29.9239 15.5337 30.2186 15.171L31.3746 16.055C30.5246 17.1543 29.3346 17.704 27.8046 17.704C27.1699 17.704 26.5919 17.5963 26.0706 17.381C25.5606 17.1657 25.1242 16.871 24.7616 16.497C24.4102 16.1117 24.1382 15.664 23.9456 15.154C23.7529 14.6327 23.6566 14.0717 23.6566 13.471C23.6566 12.8703 23.7586 12.315 23.9626 11.805C24.1779 11.2837 24.4669 10.836 24.8296 10.462C25.2036 10.0767 25.6456 9.77633 26.1556 9.561C26.6656 9.34567 27.2209 9.238 27.8216 9.238C28.5356 9.238 29.1362 9.36267 29.6236 9.612C30.1222 9.86133 30.5302 10.19 30.8476 10.598C31.1649 10.9947 31.3916 11.448 31.5276 11.958C31.6749 12.4567 31.7486 12.9667 31.7486 13.488V14.032H25.2886ZM30.1166 12.808C30.1052 12.468 30.0486 12.1563 29.9466 11.873C29.8559 11.5897 29.7142 11.346 29.5216 11.142C29.3289 10.9267 29.0852 10.7623 28.7906 10.649C28.5072 10.5243 28.1729 10.462 27.7876 10.462C27.4136 10.462 27.0679 10.5357 26.7506 10.683C26.4446 10.819 26.1839 11.0003 25.9686 11.227C25.7532 11.4537 25.5832 11.7087 25.4586 11.992C25.3452 12.264 25.2886 12.536 25.2886 12.808H30.1166ZM39.3419 11.584C39.0585 11.2893 38.7582 11.0683 38.4409 10.921C38.1349 10.7623 37.7665 10.683 37.3359 10.683C36.9165 10.683 36.5482 10.7623 36.2309 10.921C35.9249 11.0683 35.6642 11.278 35.4489 11.55C35.2449 11.8107 35.0862 12.1167 34.9729 12.468C34.8709 12.808 34.8199 13.165 34.8199 13.539C34.8199 13.913 34.8822 14.27 35.0069 14.61C35.1315 14.9387 35.3072 15.2277 35.5339 15.477C35.7605 15.7263 36.0325 15.9247 36.3499 16.072C36.6672 16.208 37.0242 16.276 37.4209 16.276C37.8515 16.276 38.2199 16.2023 38.5259 16.055C38.8319 15.8963 39.1152 15.6697 39.3759 15.375L40.4639 16.463C40.0672 16.905 39.6025 17.2223 39.0699 17.415C38.5485 17.6077 37.9932 17.704 37.4039 17.704C36.7805 17.704 36.2082 17.602 35.6869 17.398C35.1769 17.194 34.7349 16.9107 34.3609 16.548C33.9869 16.174 33.6979 15.732 33.4939 15.222C33.2899 14.7007 33.1879 14.1283 33.1879 13.505C33.1879 12.8817 33.2899 12.3093 33.4939 11.788C33.6979 11.2667 33.9812 10.819 34.3439 10.445C34.7179 10.071 35.1599 9.782 35.6699 9.578C36.1912 9.36267 36.7692 9.255 37.4039 9.255C37.9932 9.255 38.5542 9.36267 39.0869 9.578C39.6309 9.782 40.1012 10.0993 40.4979 10.53L39.3419 11.584ZM41.899 9.442H43.429V17.5H41.899V9.442ZM41.542 6.552C41.542 6.246 41.6497 5.98533 41.865 5.77C42.0917 5.54333 42.358 5.43 42.664 5.43C42.97 5.43 43.2307 5.54333 43.446 5.77C43.6727 5.98533 43.786 6.246 43.786 6.552C43.786 6.858 43.6727 7.12433 43.446 7.351C43.2307 7.56633 42.97 7.674 42.664 7.674C42.358 7.674 42.0917 7.56633 41.865 7.351C41.6497 7.12433 41.542 6.858 41.542 6.552ZM47.105 13.471C47.105 13.879 47.1673 14.2587 47.292 14.61C47.4167 14.95 47.5923 15.2447 47.819 15.494C48.0457 15.732 48.3233 15.9247 48.652 16.072C48.9807 16.208 49.349 16.276 49.757 16.276C50.165 16.276 50.5333 16.208 50.862 16.072C51.1907 15.9247 51.4683 15.732 51.695 15.494C51.9217 15.2447 52.0973 14.95 52.222 14.61C52.3467 14.2587 52.409 13.879 52.409 13.471C52.409 13.063 52.3467 12.689 52.222 12.349C52.0973 11.9977 51.9217 11.703 51.695 11.465C51.4683 11.2157 51.1907 11.023 50.862 10.887C50.5333 10.7397 50.165 10.666 49.757 10.666C49.349 10.666 48.9807 10.7397 48.652 10.887C48.3233 11.023 48.0457 11.2157 47.819 11.465C47.5923 11.703 47.4167 11.9977 47.292 12.349C47.1673 12.689 47.105 13.063 47.105 13.471ZM45.473 13.471C45.473 12.8817 45.5807 12.332 45.796 11.822C46.0227 11.312 46.3287 10.8643 46.714 10.479C47.0993 10.0937 47.5527 9.79333 48.074 9.578C48.5953 9.35133 49.1563 9.238 49.757 9.238C50.3577 9.238 50.9187 9.35133 51.44 9.578C51.9613 9.79333 52.4147 10.0937 52.8 10.479C53.1853 10.8643 53.4857 11.312 53.701 11.822C53.9277 12.332 54.041 12.8817 54.041 13.471C54.041 14.0603 53.9277 14.6157 53.701 15.137C53.4857 15.647 53.1853 16.0947 52.8 16.48C52.4147 16.854 51.9613 17.1543 51.44 17.381C50.9187 17.5963 50.3577 17.704 49.757 17.704C49.1563 17.704 48.5953 17.5963 48.074 17.381C47.5527 17.1543 47.0993 16.854 46.714 16.48C46.3287 16.0947 46.0227 15.647 45.796 15.137C45.5807 14.6157 45.473 14.0603 45.473 13.471ZM55.9578 9.442H57.4878V10.683H57.5218C57.7144 10.2523 58.0488 9.90667 58.5248 9.646C59.0008 9.374 59.5504 9.238 60.1738 9.238C60.5591 9.238 60.9274 9.30033 61.2788 9.425C61.6414 9.53833 61.9531 9.71967 62.2138 9.969C62.4858 10.2183 62.7011 10.5413 62.8598 10.938C63.0184 11.3233 63.0978 11.7823 63.0978 12.315V17.5H61.5678V12.74C61.5678 12.366 61.5168 12.0487 61.4148 11.788C61.3128 11.516 61.1768 11.3007 61.0068 11.142C60.8368 10.972 60.6384 10.853 60.4118 10.785C60.1964 10.7057 59.9698 10.666 59.7318 10.666C59.4144 10.666 59.1198 10.717 58.8478 10.819C58.5758 10.921 58.3378 11.0853 58.1338 11.312C57.9298 11.5273 57.7711 11.805 57.6578 12.145C57.5444 12.485 57.4878 12.8873 57.4878 13.352V17.5H55.9578V9.442ZM65.438 10.428C65.8687 10.0313 66.3674 9.73667 66.934 9.544C67.5007 9.34 68.0674 9.238 68.634 9.238C69.2234 9.238 69.7277 9.31167 70.147 9.459C70.5777 9.60633 70.929 9.80467 71.201 10.054C71.473 10.3033 71.6714 10.5923 71.796 10.921C71.932 11.2383 72 11.5727 72 11.924V16.038C72 16.3213 72.0057 16.582 72.017 16.82C72.0284 17.058 72.0454 17.2847 72.068 17.5H70.708C70.674 17.092 70.657 16.684 70.657 16.276H70.623C70.283 16.7973 69.8807 17.1657 69.416 17.381C68.9514 17.5963 68.413 17.704 67.801 17.704C67.427 17.704 67.07 17.653 66.73 17.551C66.39 17.449 66.0897 17.296 65.829 17.092C65.5797 16.888 65.3814 16.6387 65.234 16.344C65.0867 16.038 65.013 15.6867 65.013 15.29C65.013 14.7687 65.1264 14.3323 65.353 13.981C65.591 13.6297 65.9084 13.3463 66.305 13.131C66.713 12.9043 67.1834 12.7457 67.716 12.655C68.26 12.553 68.838 12.502 69.45 12.502H70.572V12.162C70.572 11.958 70.5324 11.754 70.453 11.55C70.3737 11.346 70.2547 11.1647 70.096 11.006C69.9374 10.836 69.739 10.7057 69.501 10.615C69.263 10.513 68.9797 10.462 68.651 10.462C68.3564 10.462 68.0957 10.4903 67.869 10.547C67.6537 10.6037 67.4554 10.6773 67.274 10.768C67.0927 10.8473 66.9284 10.9437 66.781 11.057C66.6337 11.1703 66.492 11.278 66.356 11.38L65.438 10.428ZM69.756 13.624C69.3934 13.624 69.0194 13.6467 68.634 13.692C68.26 13.726 67.9144 13.7997 67.597 13.913C67.291 14.0263 67.036 14.185 66.832 14.389C66.6394 14.593 66.543 14.8537 66.543 15.171C66.543 15.6357 66.696 15.97 67.002 16.174C67.3194 16.378 67.7444 16.48 68.277 16.48C68.6964 16.48 69.0534 16.412 69.348 16.276C69.6427 16.1287 69.8807 15.9417 70.062 15.715C70.2434 15.4883 70.3737 15.239 70.453 14.967C70.5324 14.6837 70.572 14.406 70.572 14.134V13.624H69.756ZM74.2195 9.442H75.7495V10.683H75.7835C75.8855 10.4677 76.0215 10.275 76.1915 10.105C76.3615 9.92367 76.5485 9.77067 76.7525 9.646C76.9678 9.52133 77.2001 9.425 77.4495 9.357C77.6988 9.27767 77.9481 9.238 78.1975 9.238C78.4468 9.238 78.6735 9.272 78.8775 9.34L78.8095 10.989C78.6848 10.955 78.5601 10.9267 78.4355 10.904C78.3108 10.8813 78.1861 10.87 78.0615 10.87C77.3135 10.87 76.7411 11.0797 76.3445 11.499C75.9478 11.9183 75.7495 12.57 75.7495 13.454V17.5H74.2195V9.442ZM88.1499 6.994H84.2739V5.464H93.6579V6.994H89.7819V17.5H88.1499V6.994ZM100.435 17.5H98.9047V16.259H98.8707C98.678 16.6897 98.3437 17.041 97.8677 17.313C97.3917 17.5737 96.842 17.704 96.2187 17.704C95.822 17.704 95.448 17.6417 95.0967 17.517C94.7453 17.4037 94.4337 17.2223 94.1617 16.973C93.901 16.7237 93.6913 16.4063 93.5327 16.021C93.374 15.6243 93.2947 15.1597 93.2947 14.627V9.442H94.8247V14.202C94.8247 14.576 94.8757 14.899 94.9777 15.171C95.0797 15.4317 95.2157 15.647 95.3857 15.817C95.5557 15.9757 95.7483 16.0947 95.9637 16.174C96.1903 16.242 96.4227 16.276 96.6607 16.276C96.978 16.276 97.2727 16.225 97.5447 16.123C97.8167 16.021 98.0547 15.8623 98.2587 15.647C98.4627 15.4203 98.6213 15.137 98.7347 14.797C98.848 14.457 98.9047 14.0547 98.9047 13.59V9.442H100.435V17.5ZM110.816 17.5H109.286V16.344H109.252C108.957 16.7747 108.549 17.109 108.028 17.347C107.518 17.585 106.991 17.704 106.447 17.704C105.824 17.704 105.257 17.5963 104.747 17.381C104.248 17.1657 103.818 16.8653 103.455 16.48C103.104 16.0947 102.832 15.647 102.639 15.137C102.446 14.627 102.35 14.0717 102.35 13.471C102.35 12.8703 102.446 12.315 102.639 11.805C102.832 11.2837 103.104 10.836 103.455 10.462C103.818 10.0767 104.248 9.77633 104.747 9.561C105.257 9.34567 105.824 9.238 106.447 9.238C107.025 9.238 107.569 9.36267 108.079 9.612C108.589 9.85 108.98 10.1787 109.252 10.598H109.286V4.648H110.816V17.5ZM106.634 16.276C107.042 16.276 107.41 16.208 107.739 16.072C108.068 15.9247 108.345 15.732 108.572 15.494C108.799 15.2447 108.974 14.95 109.099 14.61C109.224 14.2587 109.286 13.879 109.286 13.471C109.286 13.063 109.224 12.689 109.099 12.349C108.974 11.9977 108.799 11.703 108.572 11.465C108.345 11.2157 108.068 11.023 107.739 10.887C107.41 10.7397 107.042 10.666 106.634 10.666C106.226 10.666 105.858 10.7397 105.529 10.887C105.2 11.023 104.923 11.2157 104.696 11.465C104.469 11.703 104.294 11.9977 104.169 12.349C104.044 12.689 103.982 13.063 103.982 13.471C103.982 13.879 104.044 14.2587 104.169 14.61C104.294 14.95 104.469 15.2447 104.696 15.494C104.923 15.732 105.2 15.9247 105.529 16.072C105.858 16.208 106.226 16.276 106.634 16.276ZM114.375 13.471C114.375 13.879 114.437 14.2587 114.562 14.61C114.686 14.95 114.862 15.2447 115.089 15.494C115.315 15.732 115.593 15.9247 115.922 16.072C116.25 16.208 116.619 16.276 117.027 16.276C117.435 16.276 117.803 16.208 118.132 16.072C118.46 15.9247 118.738 15.732 118.965 15.494C119.191 15.2447 119.367 14.95 119.492 14.61C119.616 14.2587 119.679 13.879 119.679 13.471C119.679 13.063 119.616 12.689 119.492 12.349C119.367 11.9977 119.191 11.703 118.965 11.465C118.738 11.2157 118.46 11.023 118.132 10.887C117.803 10.7397 117.435 10.666 117.027 10.666C116.619 10.666 116.25 10.7397 115.922 10.887C115.593 11.023 115.315 11.2157 115.089 11.465C114.862 11.703 114.686 11.9977 114.562 12.349C114.437 12.689 114.375 13.063 114.375 13.471ZM112.743 13.471C112.743 12.8817 112.85 12.332 113.066 11.822C113.292 11.312 113.598 10.8643 113.984 10.479C114.369 10.0937 114.822 9.79333 115.344 9.578C115.865 9.35133 116.426 9.238 117.027 9.238C117.627 9.238 118.188 9.35133 118.71 9.578C119.231 9.79333 119.684 10.0937 120.07 10.479C120.455 10.8643 120.755 11.312 120.971 11.822C121.197 12.332 121.311 12.8817 121.311 13.471C121.311 14.0603 121.197 14.6157 120.971 15.137C120.755 15.647 120.455 16.0947 120.07 16.48C119.684 16.854 119.231 17.1543 118.71 17.381C118.188 17.5963 117.627 17.704 117.027 17.704C116.426 17.704 115.865 17.5963 115.344 17.381C114.822 17.1543 114.369 16.854 113.984 16.48C113.598 16.0947 113.292 15.647 113.066 15.137C112.85 14.6157 112.743 14.0603 112.743 13.471Z" fill="#353B50"/>
<path d="M140 2C134.477 2 130 6.477 130 12C130 17.523 134.477 22 140 22C145.523 22 150 17.523 150 12C150 6.477 145.523 2 140 2ZM138 17.414L133.293 12.707L134.707 11.293L138 14.586L145.293 7.293L146.707 8.707L138 17.414Z" fill="black"/>
</svg>
