<svg width="25" height="24" viewBox="0 0 25 24" fill="none" xmlns="http://www.w3.org/2000/svg">
<path d="M9.5 1C6.335 1 3.65792 3.112 2.79492 6H22.2598C21.3968 3.112 18.7187 1 15.5547 1H12.5547H12.5H9.5ZM2.5 8V12.5977C1.899 13.1557 1.55469 13.9728 1.55469 14.8848C1.55469 15.7398 1.90705 16.5613 2.49805 17.1133L3.52539 18.1406V18.1465L10.7188 14.4336C11.8247 13.8656 13.1753 13.8686 14.2773 14.4336L21.5 18.168L22.5293 17.1367C23.1453 16.5617 23.5 15.7398 23.5 14.8848C23.5 13.9728 23.1557 13.1557 22.5547 12.5977V8H2.5ZM5.5 10H11.5L7.81055 12.7734C7.26455 13.1844 6.47772 12.9381 6.26172 12.2891L5.5 10ZM13.5 10H19.5L18.7383 12.2891C18.5223 12.9371 17.7355 13.1834 17.1895 12.7734L13.5 10ZM12.5 16.0039C12.2022 16.0039 11.9048 16.0739 11.6348 16.2129L4.15234 20.0723L4.35938 20.4121C5.58437 22.5601 7.00386 23 8.75586 23H9.5C10.804 23 11.9151 22.164 12.3281 21H12.6719C13.0849 22.164 14.198 23 15.502 23H16.2441C17.9951 23 19.413 22.5605 20.623 20.4375L20.8418 20.0781L13.3613 16.2109C13.0943 16.0729 12.7978 16.0039 12.5 16.0039Z" fill="black"/>
</svg>
