<svg width="152" height="24" viewBox="0 0 152 24" fill="none" xmlns="http://www.w3.org/2000/svg">
<path d="M5.321 4.964H6.8L11.951 17H10.047L8.84 14.025H3.111L1.921 17H0.017L5.321 4.964ZM8.245 12.597L6.001 7.072H5.967L3.689 12.597H8.245ZM21.2007 17H19.6707V15.844H19.6367C19.3421 16.2747 18.9341 16.609 18.4127 16.847C17.9027 17.085 17.3757 17.204 16.8317 17.204C16.2084 17.204 15.6417 17.0963 15.1317 16.881C14.6331 16.6657 14.2024 16.3653 13.8397 15.98C13.4884 15.5947 13.2164 15.147 13.0237 14.637C12.8311 14.127 12.7347 13.5717 12.7347 12.971C12.7347 12.3703 12.8311 11.815 13.0237 11.305C13.2164 10.7837 13.4884 10.336 13.8397 9.962C14.2024 9.57667 14.6331 9.27633 15.1317 9.061C15.6417 8.84567 16.2084 8.738 16.8317 8.738C17.4097 8.738 17.9537 8.86267 18.4637 9.112C18.9737 9.35 19.3647 9.67867 19.6367 10.098H19.6707V4.148H21.2007V17ZM17.0187 15.776C17.4267 15.776 17.7951 15.708 18.1237 15.572C18.4524 15.4247 18.7301 15.232 18.9567 14.994C19.1834 14.7447 19.3591 14.45 19.4837 14.11C19.6084 13.7587 19.6707 13.379 19.6707 12.971C19.6707 12.563 19.6084 12.189 19.4837 11.849C19.3591 11.4977 19.1834 11.203 18.9567 10.965C18.7301 10.7157 18.4524 10.523 18.1237 10.387C17.7951 10.2397 17.4267 10.166 17.0187 10.166C16.6107 10.166 16.2424 10.2397 15.9137 10.387C15.5851 10.523 15.3074 10.7157 15.0807 10.965C14.8541 11.203 14.6784 11.4977 14.5537 11.849C14.4291 12.189 14.3667 12.563 14.3667 12.971C14.3667 13.379 14.4291 13.7587 14.5537 14.11C14.6784 14.45 14.8541 14.7447 15.0807 14.994C15.3074 15.232 15.5851 15.4247 15.9137 15.572C16.2424 15.708 16.6107 15.776 17.0187 15.776ZM23.6373 8.942H25.1673V17H23.6373V8.942ZM23.2803 6.052C23.2803 5.746 23.388 5.48533 23.6033 5.27C23.83 5.04333 24.0963 4.93 24.4023 4.93C24.7083 4.93 24.969 5.04333 25.1843 5.27C25.411 5.48533 25.5243 5.746 25.5243 6.052C25.5243 6.358 25.411 6.62433 25.1843 6.851C24.969 7.06633 24.7083 7.174 24.4023 7.174C24.0963 7.174 23.83 7.06633 23.6033 6.851C23.388 6.62433 23.2803 6.358 23.2803 6.052ZM33.3653 11.084C33.082 10.7893 32.7816 10.5683 32.4643 10.421C32.1583 10.2623 31.79 10.183 31.3593 10.183C30.94 10.183 30.5716 10.2623 30.2543 10.421C29.9483 10.5683 29.6876 10.778 29.4723 11.05C29.2683 11.3107 29.1096 11.6167 28.9963 11.968C28.8943 12.308 28.8433 12.665 28.8433 13.039C28.8433 13.413 28.9056 13.77 29.0303 14.11C29.155 14.4387 29.3306 14.7277 29.5573 14.977C29.784 15.2263 30.056 15.4247 30.3733 15.572C30.6906 15.708 31.0476 15.776 31.4443 15.776C31.875 15.776 32.2433 15.7023 32.5493 15.555C32.8553 15.3963 33.1386 15.1697 33.3993 14.875L34.4873 15.963C34.0906 16.405 33.626 16.7223 33.0933 16.915C32.572 17.1077 32.0166 17.204 31.4273 17.204C30.804 17.204 30.2316 17.102 29.7103 16.898C29.2003 16.694 28.7583 16.4107 28.3843 16.048C28.0103 15.674 27.7213 15.232 27.5173 14.722C27.3133 14.2007 27.2113 13.6283 27.2113 13.005C27.2113 12.3817 27.3133 11.8093 27.5173 11.288C27.7213 10.7667 28.0046 10.319 28.3673 9.945C28.7413 9.571 29.1833 9.282 29.6933 9.078C30.2146 8.86267 30.7926 8.755 31.4273 8.755C32.0166 8.755 32.5776 8.86267 33.1103 9.078C33.6543 9.282 34.1246 9.59933 34.5213 10.03L33.3653 11.084ZM35.9225 8.942H37.4525V17H35.9225V8.942ZM35.5655 6.052C35.5655 5.746 35.6731 5.48533 35.8885 5.27C36.1151 5.04333 36.3815 4.93 36.6875 4.93C36.9935 4.93 37.2541 5.04333 37.4695 5.27C37.6961 5.48533 37.8095 5.746 37.8095 6.052C37.8095 6.358 37.6961 6.62433 37.4695 6.851C37.2541 7.06633 36.9935 7.174 36.6875 7.174C36.3815 7.174 36.1151 7.06633 35.8885 6.851C35.6731 6.62433 35.5655 6.358 35.5655 6.052ZM41.1284 12.971C41.1284 13.379 41.1908 13.7587 41.3154 14.11C41.4401 14.45 41.6158 14.7447 41.8424 14.994C42.0691 15.232 42.3468 15.4247 42.6754 15.572C43.0041 15.708 43.3724 15.776 43.7804 15.776C44.1884 15.776 44.5568 15.708 44.8854 15.572C45.2141 15.4247 45.4918 15.232 45.7184 14.994C45.9451 14.7447 46.1208 14.45 46.2454 14.11C46.3701 13.7587 46.4324 13.379 46.4324 12.971C46.4324 12.563 46.3701 12.189 46.2454 11.849C46.1208 11.4977 45.9451 11.203 45.7184 10.965C45.4918 10.7157 45.2141 10.523 44.8854 10.387C44.5568 10.2397 44.1884 10.166 43.7804 10.166C43.3724 10.166 43.0041 10.2397 42.6754 10.387C42.3468 10.523 42.0691 10.7157 41.8424 10.965C41.6158 11.203 41.4401 11.4977 41.3154 11.849C41.1908 12.189 41.1284 12.563 41.1284 12.971ZM39.4964 12.971C39.4964 12.3817 39.6041 11.832 39.8194 11.322C40.0461 10.812 40.3521 10.3643 40.7374 9.979C41.1228 9.59367 41.5761 9.29333 42.0974 9.078C42.6188 8.85133 43.1798 8.738 43.7804 8.738C44.3811 8.738 44.9421 8.85133 45.4634 9.078C45.9848 9.29333 46.4381 9.59367 46.8234 9.979C47.2088 10.3643 47.5091 10.812 47.7244 11.322C47.9511 11.832 48.0644 12.3817 48.0644 12.971C48.0644 13.5603 47.9511 14.1157 47.7244 14.637C47.5091 15.147 47.2088 15.5947 46.8234 15.98C46.4381 16.354 45.9848 16.6543 45.4634 16.881C44.9421 17.0963 44.3811 17.204 43.7804 17.204C43.1798 17.204 42.6188 17.0963 42.0974 16.881C41.5761 16.6543 41.1228 16.354 40.7374 15.98C40.3521 15.5947 40.0461 15.147 39.8194 14.637C39.6041 14.1157 39.4964 13.5603 39.4964 12.971ZM49.9812 8.942H51.5112V10.183H51.5452C51.7379 9.75233 52.0722 9.40667 52.5482 9.146C53.0242 8.874 53.5739 8.738 54.1972 8.738C54.5825 8.738 54.9509 8.80033 55.3022 8.925C55.6649 9.03833 55.9765 9.21967 56.2372 9.469C56.5092 9.71833 56.7245 10.0413 56.8832 10.438C57.0419 10.8233 57.1212 11.2823 57.1212 11.815V17H55.5912V12.24C55.5912 11.866 55.5402 11.5487 55.4382 11.288C55.3362 11.016 55.2002 10.8007 55.0302 10.642C54.8602 10.472 54.6619 10.353 54.4352 10.285C54.2199 10.2057 53.9932 10.166 53.7552 10.166C53.4379 10.166 53.1432 10.217 52.8712 10.319C52.5992 10.421 52.3612 10.5853 52.1572 10.812C51.9532 11.0273 51.7945 11.305 51.6812 11.645C51.5679 11.985 51.5112 12.3873 51.5112 12.852V17H49.9812V8.942ZM59.4615 9.928C59.8922 9.53133 60.3908 9.23667 60.9575 9.044C61.5242 8.84 62.0908 8.738 62.6575 8.738C63.2468 8.738 63.7512 8.81167 64.1705 8.959C64.6012 9.10633 64.9525 9.30467 65.2245 9.554C65.4965 9.80333 65.6948 10.0923 65.8195 10.421C65.9555 10.7383 66.0235 11.0727 66.0235 11.424V15.538C66.0235 15.8213 66.0292 16.082 66.0405 16.32C66.0518 16.558 66.0688 16.7847 66.0915 17H64.7315C64.6975 16.592 64.6805 16.184 64.6805 15.776H64.6465C64.3065 16.2973 63.9042 16.6657 63.4395 16.881C62.9748 17.0963 62.4365 17.204 61.8245 17.204C61.4505 17.204 61.0935 17.153 60.7535 17.051C60.4135 16.949 60.1132 16.796 59.8525 16.592C59.6032 16.388 59.4048 16.1387 59.2575 15.844C59.1102 15.538 59.0365 15.1867 59.0365 14.79C59.0365 14.2687 59.1498 13.8323 59.3765 13.481C59.6145 13.1297 59.9318 12.8463 60.3285 12.631C60.7365 12.4043 61.2068 12.2457 61.7395 12.155C62.2835 12.053 62.8615 12.002 63.4735 12.002H64.5955V11.662C64.5955 11.458 64.5558 11.254 64.4765 11.05C64.3972 10.846 64.2782 10.6647 64.1195 10.506C63.9608 10.336 63.7625 10.2057 63.5245 10.115C63.2865 10.013 63.0032 9.962 62.6745 9.962C62.3798 9.962 62.1192 9.99033 61.8925 10.047C61.6772 10.1037 61.4788 10.1773 61.2975 10.268C61.1162 10.3473 60.9518 10.4437 60.8045 10.557C60.6572 10.6703 60.5155 10.778 60.3795 10.88L59.4615 9.928ZM63.7795 13.124C63.4168 13.124 63.0428 13.1467 62.6575 13.192C62.2835 13.226 61.9378 13.2997 61.6205 13.413C61.3145 13.5263 61.0595 13.685 60.8555 13.889C60.6628 14.093 60.5665 14.3537 60.5665 14.671C60.5665 15.1357 60.7195 15.47 61.0255 15.674C61.3428 15.878 61.7678 15.98 62.3005 15.98C62.7198 15.98 63.0768 15.912 63.3715 15.776C63.6662 15.6287 63.9042 15.4417 64.0855 15.215C64.2668 14.9883 64.3972 14.739 64.4765 14.467C64.5558 14.1837 64.5955 13.906 64.5955 13.634V13.124H63.7795ZM68.2429 8.942H69.7729V10.183H69.8069C69.9089 9.96767 70.0449 9.775 70.2149 9.605C70.3849 9.42367 70.5719 9.27067 70.7759 9.146C70.9912 9.02133 71.2236 8.925 71.4729 8.857C71.7222 8.77767 71.9716 8.738 72.2209 8.738C72.4702 8.738 72.6969 8.772 72.9009 8.84L72.8329 10.489C72.7082 10.455 72.5836 10.4267 72.4589 10.404C72.3342 10.3813 72.2096 10.37 72.0849 10.37C71.3369 10.37 70.7646 10.5797 70.3679 10.999C69.9712 11.4183 69.7729 12.07 69.7729 12.954V17H68.2429V8.942ZM79.3004 9.928C79.731 9.53133 80.2297 9.23667 80.7964 9.044C81.363 8.84 81.9297 8.738 82.4964 8.738C83.0857 8.738 83.59 8.81167 84.0094 8.959C84.44 9.10633 84.7914 9.30467 85.0634 9.554C85.3354 9.80333 85.5337 10.0923 85.6584 10.421C85.7944 10.7383 85.8624 11.0727 85.8624 11.424V15.538C85.8624 15.8213 85.868 16.082 85.8794 16.32C85.8907 16.558 85.9077 16.7847 85.9304 17H84.5704C84.5364 16.592 84.5194 16.184 84.5194 15.776H84.4854C84.1454 16.2973 83.743 16.6657 83.2784 16.881C82.8137 17.0963 82.2754 17.204 81.6634 17.204C81.2894 17.204 80.9324 17.153 80.5924 17.051C80.2524 16.949 79.952 16.796 79.6914 16.592C79.442 16.388 79.2437 16.1387 79.0964 15.844C78.949 15.538 78.8754 15.1867 78.8754 14.79C78.8754 14.2687 78.9887 13.8323 79.2154 13.481C79.4534 13.1297 79.7707 12.8463 80.1674 12.631C80.5754 12.4043 81.0457 12.2457 81.5784 12.155C82.1224 12.053 82.7004 12.002 83.3124 12.002H84.4344V11.662C84.4344 11.458 84.3947 11.254 84.3154 11.05C84.236 10.846 84.117 10.6647 83.9584 10.506C83.7997 10.336 83.6014 10.2057 83.3634 10.115C83.1254 10.013 82.842 9.962 82.5134 9.962C82.2187 9.962 81.958 9.99033 81.7314 10.047C81.516 10.1037 81.3177 10.1773 81.1364 10.268C80.955 10.3473 80.7907 10.4437 80.6434 10.557C80.496 10.6703 80.3544 10.778 80.2184 10.88L79.3004 9.928ZM83.6184 13.124C83.2557 13.124 82.8817 13.1467 82.4964 13.192C82.1224 13.226 81.7767 13.2997 81.4594 13.413C81.1534 13.5263 80.8984 13.685 80.6944 13.889C80.5017 14.093 80.4054 14.3537 80.4054 14.671C80.4054 15.1357 80.5584 15.47 80.8644 15.674C81.1817 15.878 81.6067 15.98 82.1394 15.98C82.5587 15.98 82.9157 15.912 83.2104 15.776C83.505 15.6287 83.743 15.4417 83.9244 15.215C84.1057 14.9883 84.236 14.739 84.3154 14.467C84.3947 14.1837 84.4344 13.906 84.4344 13.634V13.124H83.6184ZM92.9322 4.148H94.4622V17H92.9322V4.148ZM97.0162 8.942H98.5462V17H97.0162V8.942ZM96.6592 6.052C96.6592 5.746 96.7669 5.48533 96.9822 5.27C97.2089 5.04333 97.4752 4.93 97.7812 4.93C98.0872 4.93 98.3479 5.04333 98.5632 5.27C98.7899 5.48533 98.9032 5.746 98.9032 6.052C98.9032 6.358 98.7899 6.62433 98.5632 6.851C98.3479 7.06633 98.0872 7.174 97.7812 7.174C97.4752 7.174 97.2089 7.06633 96.9822 6.851C96.7669 6.62433 96.6592 6.358 96.6592 6.052ZM105.265 10.965C105.084 10.7383 104.857 10.5513 104.585 10.404C104.325 10.2453 104.002 10.166 103.616 10.166C103.254 10.166 102.936 10.2453 102.664 10.404C102.404 10.5513 102.273 10.7723 102.273 11.067C102.273 11.305 102.347 11.4977 102.494 11.645C102.653 11.7923 102.834 11.9113 103.038 12.002C103.254 12.0927 103.48 12.1607 103.718 12.206C103.956 12.2513 104.16 12.291 104.33 12.325C104.659 12.4043 104.965 12.5007 105.248 12.614C105.543 12.7273 105.792 12.8747 105.996 13.056C106.212 13.2373 106.376 13.4583 106.489 13.719C106.614 13.9797 106.676 14.297 106.676 14.671C106.676 15.1243 106.58 15.5153 106.387 15.844C106.195 16.1613 105.945 16.422 105.639 16.626C105.333 16.83 104.982 16.9773 104.585 17.068C104.2 17.1587 103.809 17.204 103.412 17.204C102.744 17.204 102.154 17.102 101.644 16.898C101.146 16.694 100.698 16.32 100.301 15.776L101.457 14.824C101.707 15.0733 101.984 15.2943 102.29 15.487C102.596 15.6797 102.97 15.776 103.412 15.776C103.605 15.776 103.798 15.759 103.99 15.725C104.194 15.6797 104.37 15.6173 104.517 15.538C104.676 15.4473 104.801 15.3397 104.891 15.215C104.993 15.079 105.044 14.926 105.044 14.756C105.044 14.5293 104.971 14.3423 104.823 14.195C104.687 14.0477 104.517 13.9343 104.313 13.855C104.121 13.7643 103.911 13.6963 103.684 13.651C103.469 13.5943 103.276 13.549 103.106 13.515C102.778 13.4357 102.466 13.345 102.171 13.243C101.877 13.141 101.616 13.005 101.389 12.835C101.163 12.665 100.981 12.4497 100.845 12.189C100.709 11.9283 100.641 11.6053 100.641 11.22C100.641 10.8007 100.726 10.438 100.896 10.132C101.078 9.81467 101.31 9.554 101.593 9.35C101.888 9.146 102.217 8.993 102.579 8.891C102.953 8.789 103.327 8.738 103.701 8.738C104.245 8.738 104.767 8.84 105.265 9.044C105.764 9.248 106.161 9.588 106.455 10.064L105.265 10.965ZM112.853 10.268H110.66V13.923C110.66 14.1497 110.666 14.3763 110.677 14.603C110.688 14.8183 110.728 15.0167 110.796 15.198C110.875 15.368 110.989 15.5097 111.136 15.623C111.295 15.725 111.521 15.776 111.816 15.776C111.997 15.776 112.184 15.759 112.377 15.725C112.57 15.691 112.745 15.6287 112.904 15.538V16.932C112.723 17.034 112.485 17.102 112.19 17.136C111.907 17.1813 111.686 17.204 111.527 17.204C110.938 17.204 110.479 17.1247 110.15 16.966C109.833 16.796 109.595 16.5807 109.436 16.32C109.289 16.0593 109.198 15.7703 109.164 15.453C109.141 15.1243 109.13 14.7957 109.13 14.467V10.268H107.362V8.942H109.13V6.681H110.66V8.942H112.853V10.268ZM114.861 9.928C115.292 9.53133 115.79 9.23667 116.357 9.044C116.924 8.84 117.49 8.738 118.057 8.738C118.646 8.738 119.151 8.81167 119.57 8.959C120.001 9.10633 120.352 9.30467 120.624 9.554C120.896 9.80333 121.094 10.0923 121.219 10.421C121.355 10.7383 121.423 11.0727 121.423 11.424V15.538C121.423 15.8213 121.429 16.082 121.44 16.32C121.451 16.558 121.468 16.7847 121.491 17H120.131C120.097 16.592 120.08 16.184 120.08 15.776H120.046C119.706 16.2973 119.304 16.6657 118.839 16.881C118.374 17.0963 117.836 17.204 117.224 17.204C116.85 17.204 116.493 17.153 116.153 17.051C115.813 16.949 115.513 16.796 115.252 16.592C115.003 16.388 114.804 16.1387 114.657 15.844C114.51 15.538 114.436 15.1867 114.436 14.79C114.436 14.2687 114.549 13.8323 114.776 13.481C115.014 13.1297 115.331 12.8463 115.728 12.631C116.136 12.4043 116.606 12.2457 117.139 12.155C117.683 12.053 118.261 12.002 118.873 12.002H119.995V11.662C119.995 11.458 119.955 11.254 119.876 11.05C119.797 10.846 119.678 10.6647 119.519 10.506C119.36 10.336 119.162 10.2057 118.924 10.115C118.686 10.013 118.403 9.962 118.074 9.962C117.779 9.962 117.519 9.99033 117.292 10.047C117.077 10.1037 116.878 10.1773 116.697 10.268C116.516 10.3473 116.351 10.4437 116.204 10.557C116.057 10.6703 115.915 10.778 115.779 10.88L114.861 9.928ZM119.179 13.124C118.816 13.124 118.442 13.1467 118.057 13.192C117.683 13.226 117.337 13.2997 117.02 13.413C116.714 13.5263 116.459 13.685 116.255 13.889C116.062 14.093 115.966 14.3537 115.966 14.671C115.966 15.1357 116.119 15.47 116.425 15.674C116.742 15.878 117.167 15.98 117.7 15.98C118.119 15.98 118.476 15.912 118.771 15.776C119.066 15.6287 119.304 15.4417 119.485 15.215C119.666 14.9883 119.797 14.739 119.876 14.467C119.955 14.1837 119.995 13.906 119.995 13.634V13.124H119.179Z" fill="#353B50"/>
<path d="M142 10H130V12H142V10ZM142 6H130V8H142V6ZM146 14V10H144V14H140V16H144V20H146V16H150V14H146ZM130 16H138V14H130V16Z" fill="black"/>
</svg>
