<svg width="214" height="24" viewBox="0 0 214 24" fill="none" xmlns="http://www.w3.org/2000/svg">
<path d="M1.275 4.964H5.474C6.324 4.964 7.06633 5.06033 7.701 5.253C8.347 5.44567 8.90233 5.70633 9.367 6.035C9.843 6.35233 10.234 6.72067 10.54 7.14C10.8573 7.55933 11.1067 7.99 11.288 8.432C11.4693 8.874 11.5997 9.316 11.679 9.758C11.7583 10.2 11.798 10.608 11.798 10.982C11.798 11.7527 11.6563 12.5007 11.373 13.226C11.0897 13.94 10.6703 14.5803 10.115 15.147C9.55967 15.7023 8.86833 16.15 8.041 16.49C7.225 16.83 6.27867 17 5.202 17H1.275V4.964ZM2.907 15.47H4.964C5.65533 15.47 6.307 15.3793 6.919 15.198C7.54233 15.0053 8.08633 14.722 8.551 14.348C9.01567 13.974 9.384 13.5093 9.656 12.954C9.928 12.3873 10.064 11.73 10.064 10.982C10.064 10.5967 10.0017 10.149 9.877 9.639C9.75233 9.11767 9.51433 8.62467 9.163 8.16C8.823 7.69533 8.347 7.30433 7.735 6.987C7.123 6.65833 6.32967 6.494 5.355 6.494H2.907V15.47ZM14.9976 12.971C14.9976 13.379 15.0599 13.7587 15.1846 14.11C15.3093 14.45 15.4849 14.7447 15.7116 14.994C15.9383 15.232 16.2159 15.4247 16.5446 15.572C16.8733 15.708 17.2416 15.776 17.6496 15.776C18.0576 15.776 18.4259 15.708 18.7546 15.572C19.0833 15.4247 19.3609 15.232 19.5876 14.994C19.8143 14.7447 19.9899 14.45 20.1146 14.11C20.2393 13.7587 20.3016 13.379 20.3016 12.971C20.3016 12.563 20.2393 12.189 20.1146 11.849C19.9899 11.4977 19.8143 11.203 19.5876 10.965C19.3609 10.7157 19.0833 10.523 18.7546 10.387C18.4259 10.2397 18.0576 10.166 17.6496 10.166C17.2416 10.166 16.8733 10.2397 16.5446 10.387C16.2159 10.523 15.9383 10.7157 15.7116 10.965C15.4849 11.203 15.3093 11.4977 15.1846 11.849C15.0599 12.189 14.9976 12.563 14.9976 12.971ZM13.3656 12.971C13.3656 12.3817 13.4733 11.832 13.6886 11.322C13.9153 10.812 14.2213 10.3643 14.6066 9.979C14.9919 9.59367 15.4453 9.29333 15.9666 9.078C16.4879 8.85133 17.0489 8.738 17.6496 8.738C18.2503 8.738 18.8113 8.85133 19.3326 9.078C19.8539 9.29333 20.3073 9.59367 20.6926 9.979C21.0779 10.3643 21.3783 10.812 21.5936 11.322C21.8203 11.832 21.9336 12.3817 21.9336 12.971C21.9336 13.5603 21.8203 14.1157 21.5936 14.637C21.3783 15.147 21.0779 15.5947 20.6926 15.98C20.3073 16.354 19.8539 16.6543 19.3326 16.881C18.8113 17.0963 18.2503 17.204 17.6496 17.204C17.0489 17.204 16.4879 17.0963 15.9666 16.881C15.4453 16.6543 14.9919 16.354 14.6066 15.98C14.2213 15.5947 13.9153 15.147 13.6886 14.637C13.4733 14.1157 13.3656 13.5603 13.3656 12.971ZM22.8813 8.942H24.5983L26.4173 14.96H26.4513L28.3723 8.942H29.9873L32.0273 14.96H32.0613L33.7953 8.942H35.4103L32.8093 17H31.2623L29.1373 10.982H29.1033L27.1823 17H25.5333L22.8813 8.942ZM36.7498 8.942H38.2798V10.183H38.3138C38.5064 9.75233 38.8408 9.40667 39.3168 9.146C39.7928 8.874 40.3424 8.738 40.9658 8.738C41.3511 8.738 41.7194 8.80033 42.0708 8.925C42.4334 9.03833 42.7451 9.21967 43.0058 9.469C43.2778 9.71833 43.4931 10.0413 43.6518 10.438C43.8104 10.8233 43.8898 11.2823 43.8898 11.815V17H42.3598V12.24C42.3598 11.866 42.3088 11.5487 42.2068 11.288C42.1048 11.016 41.9688 10.8007 41.7988 10.642C41.6288 10.472 41.4304 10.353 41.2038 10.285C40.9884 10.2057 40.7618 10.166 40.5238 10.166C40.2064 10.166 39.9118 10.217 39.6398 10.319C39.3678 10.421 39.1298 10.5853 38.9258 10.812C38.7218 11.0273 38.5631 11.305 38.4498 11.645C38.3364 11.985 38.2798 12.3873 38.2798 12.852V17H36.7498V8.942ZM46.315 4.148H47.845V17H46.315V4.148ZM51.521 12.971C51.521 13.379 51.5834 13.7587 51.708 14.11C51.8327 14.45 52.0084 14.7447 52.235 14.994C52.4617 15.232 52.7394 15.4247 53.068 15.572C53.3967 15.708 53.765 15.776 54.173 15.776C54.581 15.776 54.9494 15.708 55.278 15.572C55.6067 15.4247 55.8844 15.232 56.111 14.994C56.3377 14.7447 56.5134 14.45 56.638 14.11C56.7627 13.7587 56.825 13.379 56.825 12.971C56.825 12.563 56.7627 12.189 56.638 11.849C56.5134 11.4977 56.3377 11.203 56.111 10.965C55.8844 10.7157 55.6067 10.523 55.278 10.387C54.9494 10.2397 54.581 10.166 54.173 10.166C53.765 10.166 53.3967 10.2397 53.068 10.387C52.7394 10.523 52.4617 10.7157 52.235 10.965C52.0084 11.203 51.8327 11.4977 51.708 11.849C51.5834 12.189 51.521 12.563 51.521 12.971ZM49.889 12.971C49.889 12.3817 49.9967 11.832 50.212 11.322C50.4387 10.812 50.7447 10.3643 51.13 9.979C51.5154 9.59367 51.9687 9.29333 52.49 9.078C53.0114 8.85133 53.5724 8.738 54.173 8.738C54.7737 8.738 55.3347 8.85133 55.856 9.078C56.3774 9.29333 56.8307 9.59367 57.216 9.979C57.6014 10.3643 57.9017 10.812 58.117 11.322C58.3437 11.832 58.457 12.3817 58.457 12.971C58.457 13.5603 58.3437 14.1157 58.117 14.637C57.9017 15.147 57.6014 15.5947 57.216 15.98C56.8307 16.354 56.3774 16.6543 55.856 16.881C55.3347 17.0963 54.7737 17.204 54.173 17.204C53.5724 17.204 53.0114 17.0963 52.49 16.881C51.9687 16.6543 51.5154 16.354 51.13 15.98C50.7447 15.5947 50.4387 15.147 50.212 14.637C49.9967 14.1157 49.889 13.5603 49.889 12.971ZM60.4078 9.928C60.8384 9.53133 61.3371 9.23667 61.9038 9.044C62.4704 8.84 63.0371 8.738 63.6038 8.738C64.1931 8.738 64.6974 8.81167 65.1168 8.959C65.5474 9.10633 65.8988 9.30467 66.1708 9.554C66.4428 9.80333 66.6411 10.0923 66.7658 10.421C66.9018 10.7383 66.9698 11.0727 66.9698 11.424V15.538C66.9698 15.8213 66.9754 16.082 66.9868 16.32C66.9981 16.558 67.0151 16.7847 67.0378 17H65.6778C65.6438 16.592 65.6268 16.184 65.6268 15.776H65.5928C65.2528 16.2973 64.8504 16.6657 64.3858 16.881C63.9211 17.0963 63.3828 17.204 62.7708 17.204C62.3968 17.204 62.0398 17.153 61.6998 17.051C61.3598 16.949 61.0594 16.796 60.7988 16.592C60.5494 16.388 60.3511 16.1387 60.2038 15.844C60.0564 15.538 59.9828 15.1867 59.9828 14.79C59.9828 14.2687 60.0961 13.8323 60.3228 13.481C60.5608 13.1297 60.8781 12.8463 61.2748 12.631C61.6828 12.4043 62.1531 12.2457 62.6858 12.155C63.2298 12.053 63.8078 12.002 64.4198 12.002H65.5418V11.662C65.5418 11.458 65.5021 11.254 65.4228 11.05C65.3434 10.846 65.2244 10.6647 65.0658 10.506C64.9071 10.336 64.7088 10.2057 64.4708 10.115C64.2328 10.013 63.9494 9.962 63.6208 9.962C63.3261 9.962 63.0654 9.99033 62.8388 10.047C62.6234 10.1037 62.4251 10.1773 62.2438 10.268C62.0624 10.3473 61.8981 10.4437 61.7508 10.557C61.6034 10.6703 61.4618 10.778 61.3258 10.88L60.4078 9.928ZM64.7258 13.124C64.3631 13.124 63.9891 13.1467 63.6038 13.192C63.2298 13.226 62.8841 13.2997 62.5668 13.413C62.2608 13.5263 62.0058 13.685 61.8018 13.889C61.6091 14.093 61.5128 14.3537 61.5128 14.671C61.5128 15.1357 61.6658 15.47 61.9718 15.674C62.2891 15.878 62.7141 15.98 63.2468 15.98C63.6661 15.98 64.0231 15.912 64.3178 15.776C64.6124 15.6287 64.8504 15.4417 65.0318 15.215C65.2131 14.9883 65.3434 14.739 65.4228 14.467C65.5021 14.1837 65.5418 13.906 65.5418 13.634V13.124H64.7258ZM77.2642 17H75.7342V15.844H75.7002C75.4055 16.2747 74.9975 16.609 74.4762 16.847C73.9662 17.085 73.4392 17.204 72.8952 17.204C72.2719 17.204 71.7052 17.0963 71.1952 16.881C70.6965 16.6657 70.2659 16.3653 69.9032 15.98C69.5519 15.5947 69.2799 15.147 69.0872 14.637C68.8945 14.127 68.7982 13.5717 68.7982 12.971C68.7982 12.3703 68.8945 11.815 69.0872 11.305C69.2799 10.7837 69.5519 10.336 69.9032 9.962C70.2659 9.57667 70.6965 9.27633 71.1952 9.061C71.7052 8.84567 72.2719 8.738 72.8952 8.738C73.4732 8.738 74.0172 8.86267 74.5272 9.112C75.0372 9.35 75.4282 9.67867 75.7002 10.098H75.7342V4.148H77.2642V17ZM73.0822 15.776C73.4902 15.776 73.8585 15.708 74.1872 15.572C74.5159 15.4247 74.7935 15.232 75.0202 14.994C75.2469 14.7447 75.4225 14.45 75.5472 14.11C75.6719 13.7587 75.7342 13.379 75.7342 12.971C75.7342 12.563 75.6719 12.189 75.5472 11.849C75.4225 11.4977 75.2469 11.203 75.0202 10.965C74.7935 10.7157 74.5159 10.523 74.1872 10.387C73.8585 10.2397 73.4902 10.166 73.0822 10.166C72.6742 10.166 72.3059 10.2397 71.9772 10.387C71.6485 10.523 71.3709 10.7157 71.1442 10.965C70.9175 11.203 70.7419 11.4977 70.6172 11.849C70.4925 12.189 70.4302 12.563 70.4302 12.971C70.4302 13.379 70.4925 13.7587 70.6172 14.11C70.7419 14.45 70.9175 14.7447 71.1442 14.994C71.3709 15.232 71.6485 15.4247 71.9772 15.572C72.3059 15.708 72.6742 15.776 73.0822 15.776ZM85.0612 14.484C85.3559 14.926 85.7299 15.2547 86.1832 15.47C86.6479 15.674 87.1239 15.776 87.6112 15.776C87.8832 15.776 88.1609 15.7363 88.4442 15.657C88.7276 15.5663 88.9826 15.436 89.2092 15.266C89.4472 15.096 89.6399 14.8863 89.7872 14.637C89.9346 14.3877 90.0082 14.0987 90.0082 13.77C90.0082 13.3053 89.8609 12.954 89.5662 12.716C89.2716 12.4667 88.9032 12.2627 88.4612 12.104C88.0306 11.934 87.5546 11.7753 87.0332 11.628C86.5232 11.4693 86.0472 11.254 85.6052 10.982C85.1746 10.71 84.8119 10.3473 84.5172 9.894C84.2226 9.42933 84.0752 8.806 84.0752 8.024C84.0752 7.67267 84.1489 7.29867 84.2962 6.902C84.4549 6.50533 84.6986 6.14267 85.0272 5.814C85.3559 5.48533 85.7752 5.21333 86.2852 4.998C86.8066 4.77133 87.4299 4.658 88.1552 4.658C88.8126 4.658 89.4416 4.74867 90.0422 4.93C90.6429 5.11133 91.1699 5.47967 91.6232 6.035L90.2972 7.242C90.0932 6.92467 89.8042 6.66967 89.4302 6.477C89.0562 6.28433 88.6312 6.188 88.1552 6.188C87.7019 6.188 87.3222 6.25033 87.0162 6.375C86.7216 6.48833 86.4836 6.64133 86.3022 6.834C86.1209 7.01533 85.9906 7.21367 85.9112 7.429C85.8432 7.64433 85.8092 7.84267 85.8092 8.024C85.8092 8.534 85.9566 8.925 86.2512 9.197C86.5459 9.469 86.9086 9.69 87.3392 9.86C87.7812 10.03 88.2572 10.183 88.7672 10.319C89.2886 10.455 89.7646 10.6477 90.1952 10.897C90.6372 11.135 91.0056 11.4637 91.3002 11.883C91.5949 12.291 91.7422 12.8577 91.7422 13.583C91.7422 14.161 91.6289 14.6823 91.4022 15.147C91.1869 15.6117 90.8922 16.0027 90.5182 16.32C90.1442 16.6373 89.7022 16.881 89.1922 17.051C88.6822 17.221 88.1382 17.306 87.5602 17.306C86.7896 17.306 86.0586 17.17 85.3672 16.898C84.6759 16.626 84.1262 16.2067 83.7182 15.64L85.0612 14.484ZM94.9155 13.532C94.9155 13.8833 94.9892 14.2063 95.1365 14.501C95.2952 14.7843 95.4992 15.028 95.7485 15.232C95.9978 15.436 96.2868 15.5947 96.6155 15.708C96.9442 15.8213 97.2842 15.878 97.6355 15.878C98.1115 15.878 98.5252 15.7703 98.8765 15.555C99.2278 15.3283 99.5508 15.0337 99.8455 14.671L101.002 15.555C100.152 16.6543 98.9615 17.204 97.4315 17.204C96.7968 17.204 96.2188 17.0963 95.6975 16.881C95.1875 16.6657 94.7512 16.371 94.3885 15.997C94.0372 15.6117 93.7652 15.164 93.5725 14.654C93.3798 14.1327 93.2835 13.5717 93.2835 12.971C93.2835 12.3703 93.3855 11.815 93.5895 11.305C93.8048 10.7837 94.0938 10.336 94.4565 9.962C94.8305 9.57667 95.2725 9.27633 95.7825 9.061C96.2925 8.84567 96.8478 8.738 97.4485 8.738C98.1625 8.738 98.7632 8.86267 99.2505 9.112C99.7492 9.36133 100.157 9.69 100.475 10.098C100.792 10.4947 101.019 10.948 101.155 11.458C101.302 11.9567 101.376 12.4667 101.376 12.988V13.532H94.9155ZM99.7435 12.308C99.7322 11.968 99.6755 11.6563 99.5735 11.373C99.4828 11.0897 99.3412 10.846 99.1485 10.642C98.9558 10.4267 98.7122 10.2623 98.4175 10.149C98.1342 10.0243 97.7998 9.962 97.4145 9.962C97.0405 9.962 96.6948 10.0357 96.3775 10.183C96.0715 10.319 95.8108 10.5003 95.5955 10.727C95.3802 10.9537 95.2102 11.2087 95.0855 11.492C94.9722 11.764 94.9155 12.036 94.9155 12.308H99.7435ZM103.325 4.148H104.855V17H103.325V4.148ZM108.446 13.532C108.446 13.8833 108.519 14.2063 108.667 14.501C108.825 14.7843 109.029 15.028 109.279 15.232C109.528 15.436 109.817 15.5947 110.146 15.708C110.474 15.8213 110.814 15.878 111.166 15.878C111.642 15.878 112.055 15.7703 112.407 15.555C112.758 15.3283 113.081 15.0337 113.376 14.671L114.532 15.555C113.682 16.6543 112.492 17.204 110.962 17.204C110.327 17.204 109.749 17.0963 109.228 16.881C108.718 16.6657 108.281 16.371 107.919 15.997C107.567 15.6117 107.295 15.164 107.103 14.654C106.91 14.1327 106.814 13.5717 106.814 12.971C106.814 12.3703 106.916 11.815 107.12 11.305C107.335 10.7837 107.624 10.336 107.987 9.962C108.361 9.57667 108.803 9.27633 109.313 9.061C109.823 8.84567 110.378 8.738 110.979 8.738C111.693 8.738 112.293 8.86267 112.781 9.112C113.279 9.36133 113.687 9.69 114.005 10.098C114.322 10.4947 114.549 10.948 114.685 11.458C114.832 11.9567 114.906 12.4667 114.906 12.988V13.532H108.446ZM113.274 12.308C113.262 11.968 113.206 11.6563 113.104 11.373C113.013 11.0897 112.871 10.846 112.679 10.642C112.486 10.4267 112.242 10.2623 111.948 10.149C111.664 10.0243 111.33 9.962 110.945 9.962C110.571 9.962 110.225 10.0357 109.908 10.183C109.602 10.319 109.341 10.5003 109.126 10.727C108.91 10.9537 108.74 11.2087 108.616 11.492C108.502 11.764 108.446 12.036 108.446 12.308H113.274ZM122.499 11.084C122.216 10.7893 121.915 10.5683 121.598 10.421C121.292 10.2623 120.924 10.183 120.493 10.183C120.074 10.183 119.705 10.2623 119.388 10.421C119.082 10.5683 118.821 10.778 118.606 11.05C118.402 11.3107 118.243 11.6167 118.13 11.968C118.028 12.308 117.977 12.665 117.977 13.039C117.977 13.413 118.039 13.77 118.164 14.11C118.289 14.4387 118.464 14.7277 118.691 14.977C118.918 15.2263 119.19 15.4247 119.507 15.572C119.824 15.708 120.181 15.776 120.578 15.776C121.009 15.776 121.377 15.7023 121.683 15.555C121.989 15.3963 122.272 15.1697 122.533 14.875L123.621 15.963C123.224 16.405 122.76 16.7223 122.227 16.915C121.706 17.1077 121.15 17.204 120.561 17.204C119.938 17.204 119.365 17.102 118.844 16.898C118.334 16.694 117.892 16.4107 117.518 16.048C117.144 15.674 116.855 15.232 116.651 14.722C116.447 14.2007 116.345 13.6283 116.345 13.005C116.345 12.3817 116.447 11.8093 116.651 11.288C116.855 10.7667 117.138 10.319 117.501 9.945C117.875 9.571 118.317 9.282 118.827 9.078C119.348 8.86267 119.926 8.755 120.561 8.755C121.15 8.755 121.711 8.86267 122.244 9.078C122.788 9.282 123.258 9.59933 123.655 10.03L122.499 11.084ZM125.056 8.942H126.586V17H125.056V8.942ZM124.699 6.052C124.699 5.746 124.807 5.48533 125.022 5.27C125.249 5.04333 125.515 4.93 125.821 4.93C126.127 4.93 126.388 5.04333 126.603 5.27C126.83 5.48533 126.943 5.746 126.943 6.052C126.943 6.358 126.83 6.62433 126.603 6.851C126.388 7.06633 126.127 7.174 125.821 7.174C125.515 7.174 125.249 7.06633 125.022 6.851C124.807 6.62433 124.699 6.358 124.699 6.052ZM130.262 12.971C130.262 13.379 130.325 13.7587 130.449 14.11C130.574 14.45 130.75 14.7447 130.976 14.994C131.203 15.232 131.481 15.4247 131.809 15.572C132.138 15.708 132.506 15.776 132.914 15.776C133.322 15.776 133.691 15.708 134.019 15.572C134.348 15.4247 134.626 15.232 134.852 14.994C135.079 14.7447 135.255 14.45 135.379 14.11C135.504 13.7587 135.566 13.379 135.566 12.971C135.566 12.563 135.504 12.189 135.379 11.849C135.255 11.4977 135.079 11.203 134.852 10.965C134.626 10.7157 134.348 10.523 134.019 10.387C133.691 10.2397 133.322 10.166 132.914 10.166C132.506 10.166 132.138 10.2397 131.809 10.387C131.481 10.523 131.203 10.7157 130.976 10.965C130.75 11.203 130.574 11.4977 130.449 11.849C130.325 12.189 130.262 12.563 130.262 12.971ZM128.63 12.971C128.63 12.3817 128.738 11.832 128.953 11.322C129.18 10.812 129.486 10.3643 129.871 9.979C130.257 9.59367 130.71 9.29333 131.231 9.078C131.753 8.85133 132.314 8.738 132.914 8.738C133.515 8.738 134.076 8.85133 134.597 9.078C135.119 9.29333 135.572 9.59367 135.957 9.979C136.343 10.3643 136.643 10.812 136.858 11.322C137.085 11.832 137.198 12.3817 137.198 12.971C137.198 13.5603 137.085 14.1157 136.858 14.637C136.643 15.147 136.343 15.5947 135.957 15.98C135.572 16.354 135.119 16.6543 134.597 16.881C134.076 17.0963 133.515 17.204 132.914 17.204C132.314 17.204 131.753 17.0963 131.231 16.881C130.71 16.6543 130.257 16.354 129.871 15.98C129.486 15.5947 129.18 15.147 128.953 14.637C128.738 14.1157 128.63 13.5603 128.63 12.971ZM139.115 8.942H140.645V10.183H140.679C140.872 9.75233 141.206 9.40667 141.682 9.146C142.158 8.874 142.708 8.738 143.331 8.738C143.716 8.738 144.085 8.80033 144.436 8.925C144.799 9.03833 145.11 9.21967 145.371 9.469C145.643 9.71833 145.858 10.0413 146.017 10.438C146.176 10.8233 146.255 11.2823 146.255 11.815V17H144.725V12.24C144.725 11.866 144.674 11.5487 144.572 11.288C144.47 11.016 144.334 10.8007 144.164 10.642C143.994 10.472 143.796 10.353 143.569 10.285C143.354 10.2057 143.127 10.166 142.889 10.166C142.572 10.166 142.277 10.217 142.005 10.319C141.733 10.421 141.495 10.5853 141.291 10.812C141.087 11.0273 140.928 11.305 140.815 11.645C140.702 11.985 140.645 12.3873 140.645 12.852V17H139.115V8.942ZM148.595 9.928C149.026 9.53133 149.525 9.23667 150.091 9.044C150.658 8.84 151.225 8.738 151.791 8.738C152.381 8.738 152.885 8.81167 153.304 8.959C153.735 9.10633 154.086 9.30467 154.358 9.554C154.63 9.80333 154.829 10.0923 154.953 10.421C155.089 10.7383 155.157 11.0727 155.157 11.424V15.538C155.157 15.8213 155.163 16.082 155.174 16.32C155.186 16.558 155.203 16.7847 155.225 17H153.865C153.831 16.592 153.814 16.184 153.814 15.776H153.78C153.44 16.2973 153.038 16.6657 152.573 16.881C152.109 17.0963 151.57 17.204 150.958 17.204C150.584 17.204 150.227 17.153 149.887 17.051C149.547 16.949 149.247 16.796 148.986 16.592C148.737 16.388 148.539 16.1387 148.391 15.844C148.244 15.538 148.17 15.1867 148.17 14.79C148.17 14.2687 148.284 13.8323 148.51 13.481C148.748 13.1297 149.066 12.8463 149.462 12.631C149.87 12.4043 150.341 12.2457 150.873 12.155C151.417 12.053 151.995 12.002 152.607 12.002H153.729V11.662C153.729 11.458 153.69 11.254 153.61 11.05C153.531 10.846 153.412 10.6647 153.253 10.506C153.095 10.336 152.896 10.2057 152.658 10.115C152.42 10.013 152.137 9.962 151.808 9.962C151.514 9.962 151.253 9.99033 151.026 10.047C150.811 10.1037 150.613 10.1773 150.431 10.268C150.25 10.3473 150.086 10.4437 149.938 10.557C149.791 10.6703 149.649 10.778 149.513 10.88L148.595 9.928ZM152.913 13.124C152.551 13.124 152.177 13.1467 151.791 13.192C151.417 13.226 151.072 13.2997 150.754 13.413C150.448 13.5263 150.193 13.685 149.989 13.889C149.797 14.093 149.7 14.3537 149.7 14.671C149.7 15.1357 149.853 15.47 150.159 15.674C150.477 15.878 150.902 15.98 151.434 15.98C151.854 15.98 152.211 15.912 152.505 15.776C152.8 15.6287 153.038 15.4417 153.219 15.215C153.401 14.9883 153.531 14.739 153.61 14.467C153.69 14.1837 153.729 13.906 153.729 13.634V13.124H152.913ZM165.452 17H163.922V15.844H163.888C163.593 16.2747 163.185 16.609 162.664 16.847C162.154 17.085 161.627 17.204 161.083 17.204C160.459 17.204 159.893 17.0963 159.383 16.881C158.884 16.6657 158.453 16.3653 158.091 15.98C157.739 15.5947 157.467 15.147 157.275 14.637C157.082 14.127 156.986 13.5717 156.986 12.971C156.986 12.3703 157.082 11.815 157.275 11.305C157.467 10.7837 157.739 10.336 158.091 9.962C158.453 9.57667 158.884 9.27633 159.383 9.061C159.893 8.84567 160.459 8.738 161.083 8.738C161.661 8.738 162.205 8.86267 162.715 9.112C163.225 9.35 163.616 9.67867 163.888 10.098H163.922V4.148H165.452V17ZM161.27 15.776C161.678 15.776 162.046 15.708 162.375 15.572C162.703 15.4247 162.981 15.232 163.208 14.994C163.434 14.7447 163.61 14.45 163.735 14.11C163.859 13.7587 163.922 13.379 163.922 12.971C163.922 12.563 163.859 12.189 163.735 11.849C163.61 11.4977 163.434 11.203 163.208 10.965C162.981 10.7157 162.703 10.523 162.375 10.387C162.046 10.2397 161.678 10.166 161.27 10.166C160.862 10.166 160.493 10.2397 160.165 10.387C159.836 10.523 159.558 10.7157 159.332 10.965C159.105 11.203 158.929 11.4977 158.805 11.849C158.68 12.189 158.618 12.563 158.618 12.971C158.618 13.379 158.68 13.7587 158.805 14.11C158.929 14.45 159.105 14.7447 159.332 14.994C159.558 15.232 159.836 15.4247 160.165 15.572C160.493 15.708 160.862 15.776 161.27 15.776ZM169.01 12.971C169.01 13.379 169.073 13.7587 169.197 14.11C169.322 14.45 169.498 14.7447 169.724 14.994C169.951 15.232 170.229 15.4247 170.557 15.572C170.886 15.708 171.254 15.776 171.662 15.776C172.07 15.776 172.439 15.708 172.767 15.572C173.096 15.4247 173.374 15.232 173.6 14.994C173.827 14.7447 174.003 14.45 174.127 14.11C174.252 13.7587 174.314 13.379 174.314 12.971C174.314 12.563 174.252 12.189 174.127 11.849C174.003 11.4977 173.827 11.203 173.6 10.965C173.374 10.7157 173.096 10.523 172.767 10.387C172.439 10.2397 172.07 10.166 171.662 10.166C171.254 10.166 170.886 10.2397 170.557 10.387C170.229 10.523 169.951 10.7157 169.724 10.965C169.498 11.203 169.322 11.4977 169.197 11.849C169.073 12.189 169.01 12.563 169.01 12.971ZM167.378 12.971C167.378 12.3817 167.486 11.832 167.701 11.322C167.928 10.812 168.234 10.3643 168.619 9.979C169.005 9.59367 169.458 9.29333 169.979 9.078C170.501 8.85133 171.062 8.738 171.662 8.738C172.263 8.738 172.824 8.85133 173.345 9.078C173.867 9.29333 174.32 9.59367 174.705 9.979C175.091 10.3643 175.391 10.812 175.606 11.322C175.833 11.832 175.946 12.3817 175.946 12.971C175.946 13.5603 175.833 14.1157 175.606 14.637C175.391 15.147 175.091 15.5947 174.705 15.98C174.32 16.354 173.867 16.6543 173.345 16.881C172.824 17.0963 172.263 17.204 171.662 17.204C171.062 17.204 170.501 17.0963 169.979 16.881C169.458 16.6543 169.005 16.354 168.619 15.98C168.234 15.5947 167.928 15.147 167.701 14.637C167.486 14.1157 167.378 13.5603 167.378 12.971ZM182.147 10.965C181.966 10.7383 181.739 10.5513 181.467 10.404C181.206 10.2453 180.883 10.166 180.498 10.166C180.135 10.166 179.818 10.2453 179.546 10.404C179.285 10.5513 179.155 10.7723 179.155 11.067C179.155 11.305 179.229 11.4977 179.376 11.645C179.535 11.7923 179.716 11.9113 179.92 12.002C180.135 12.0927 180.362 12.1607 180.6 12.206C180.838 12.2513 181.042 12.291 181.212 12.325C181.541 12.4043 181.847 12.5007 182.13 12.614C182.425 12.7273 182.674 12.8747 182.878 13.056C183.093 13.2373 183.258 13.4583 183.371 13.719C183.496 13.9797 183.558 14.297 183.558 14.671C183.558 15.1243 183.462 15.5153 183.269 15.844C183.076 16.1613 182.827 16.422 182.521 16.626C182.215 16.83 181.864 16.9773 181.467 17.068C181.082 17.1587 180.691 17.204 180.294 17.204C179.625 17.204 179.036 17.102 178.526 16.898C178.027 16.694 177.58 16.32 177.183 15.776L178.339 14.824C178.588 15.0733 178.866 15.2943 179.172 15.487C179.478 15.6797 179.852 15.776 180.294 15.776C180.487 15.776 180.679 15.759 180.872 15.725C181.076 15.6797 181.252 15.6173 181.399 15.538C181.558 15.4473 181.682 15.3397 181.773 15.215C181.875 15.079 181.926 14.926 181.926 14.756C181.926 14.5293 181.852 14.3423 181.705 14.195C181.569 14.0477 181.399 13.9343 181.195 13.855C181.002 13.7643 180.793 13.6963 180.566 13.651C180.351 13.5943 180.158 13.549 179.988 13.515C179.659 13.4357 179.348 13.345 179.053 13.243C178.758 13.141 178.498 13.005 178.271 12.835C178.044 12.665 177.863 12.4497 177.727 12.189C177.591 11.9283 177.523 11.6053 177.523 11.22C177.523 10.8007 177.608 10.438 177.778 10.132C177.959 9.81467 178.192 9.554 178.475 9.35C178.77 9.146 179.098 8.993 179.461 8.891C179.835 8.789 180.209 8.738 180.583 8.738C181.127 8.738 181.648 8.84 182.147 9.044C182.646 9.248 183.042 9.588 183.337 10.064L182.147 10.965Z" fill="#353B50"/>
<path d="M209 9H205V3H199V9H195L202 16L209 9ZM195 18V20H209V18H195Z" fill="black"/>
</svg>
