<svg width="151" height="24" viewBox="0 0 151 24" fill="none" xmlns="http://www.w3.org/2000/svg">
<path d="M1.275 4.964H5.474C6.324 4.964 7.06633 5.06033 7.701 5.253C8.347 5.44567 8.90233 5.70633 9.367 6.035C9.843 6.35233 10.234 6.72067 10.54 7.14C10.8573 7.55933 11.1067 7.99 11.288 8.432C11.4693 8.874 11.5997 9.316 11.679 9.758C11.7583 10.2 11.798 10.608 11.798 10.982C11.798 11.7527 11.6563 12.5007 11.373 13.226C11.0897 13.94 10.6703 14.5803 10.115 15.147C9.55967 15.7023 8.86833 16.15 8.041 16.49C7.225 16.83 6.27867 17 5.202 17H1.275V4.964ZM2.907 15.47H4.964C5.65533 15.47 6.307 15.3793 6.919 15.198C7.54233 15.0053 8.08633 14.722 8.551 14.348C9.01567 13.974 9.384 13.5093 9.656 12.954C9.928 12.3873 10.064 11.73 10.064 10.982C10.064 10.5967 10.0017 10.149 9.877 9.639C9.75233 9.11767 9.51433 8.62467 9.163 8.16C8.823 7.69533 8.347 7.30433 7.735 6.987C7.123 6.65833 6.32967 6.494 5.355 6.494H2.907V15.47ZM14.9976 12.971C14.9976 13.379 15.0599 13.7587 15.1846 14.11C15.3093 14.45 15.4849 14.7447 15.7116 14.994C15.9383 15.232 16.2159 15.4247 16.5446 15.572C16.8733 15.708 17.2416 15.776 17.6496 15.776C18.0576 15.776 18.4259 15.708 18.7546 15.572C19.0833 15.4247 19.3609 15.232 19.5876 14.994C19.8143 14.7447 19.9899 14.45 20.1146 14.11C20.2393 13.7587 20.3016 13.379 20.3016 12.971C20.3016 12.563 20.2393 12.189 20.1146 11.849C19.9899 11.4977 19.8143 11.203 19.5876 10.965C19.3609 10.7157 19.0833 10.523 18.7546 10.387C18.4259 10.2397 18.0576 10.166 17.6496 10.166C17.2416 10.166 16.8733 10.2397 16.5446 10.387C16.2159 10.523 15.9383 10.7157 15.7116 10.965C15.4849 11.203 15.3093 11.4977 15.1846 11.849C15.0599 12.189 14.9976 12.563 14.9976 12.971ZM13.3656 12.971C13.3656 12.3817 13.4733 11.832 13.6886 11.322C13.9153 10.812 14.2213 10.3643 14.6066 9.979C14.9919 9.59367 15.4453 9.29333 15.9666 9.078C16.4879 8.85133 17.0489 8.738 17.6496 8.738C18.2503 8.738 18.8113 8.85133 19.3326 9.078C19.8539 9.29333 20.3073 9.59367 20.6926 9.979C21.0779 10.3643 21.3783 10.812 21.5936 11.322C21.8203 11.832 21.9336 12.3817 21.9336 12.971C21.9336 13.5603 21.8203 14.1157 21.5936 14.637C21.3783 15.147 21.0779 15.5947 20.6926 15.98C20.3073 16.354 19.8539 16.6543 19.3326 16.881C18.8113 17.0963 18.2503 17.204 17.6496 17.204C17.0489 17.204 16.4879 17.0963 15.9666 16.881C15.4453 16.6543 14.9919 16.354 14.6066 15.98C14.2213 15.5947 13.9153 15.147 13.6886 14.637C13.4733 14.1157 13.3656 13.5603 13.3656 12.971ZM22.8813 8.942H24.5983L26.4173 14.96H26.4513L28.3723 8.942H29.9873L32.0273 14.96H32.0613L33.7953 8.942H35.4103L32.8093 17H31.2623L29.1373 10.982H29.1033L27.1823 17H25.5333L22.8813 8.942ZM36.7498 8.942H38.2798V10.183H38.3138C38.5064 9.75233 38.8408 9.40667 39.3168 9.146C39.7928 8.874 40.3424 8.738 40.9658 8.738C41.3511 8.738 41.7194 8.80033 42.0708 8.925C42.4334 9.03833 42.7451 9.21967 43.0058 9.469C43.2778 9.71833 43.4931 10.0413 43.6518 10.438C43.8104 10.8233 43.8898 11.2823 43.8898 11.815V17H42.3598V12.24C42.3598 11.866 42.3088 11.5487 42.2068 11.288C42.1048 11.016 41.9688 10.8007 41.7988 10.642C41.6288 10.472 41.4304 10.353 41.2038 10.285C40.9884 10.2057 40.7618 10.166 40.5238 10.166C40.2064 10.166 39.9118 10.217 39.6398 10.319C39.3678 10.421 39.1298 10.5853 38.9258 10.812C38.7218 11.0273 38.5631 11.305 38.4498 11.645C38.3364 11.985 38.2798 12.3873 38.2798 12.852V17H36.7498V8.942ZM46.315 4.148H47.845V17H46.315V4.148ZM51.521 12.971C51.521 13.379 51.5834 13.7587 51.708 14.11C51.8327 14.45 52.0084 14.7447 52.235 14.994C52.4617 15.232 52.7394 15.4247 53.068 15.572C53.3967 15.708 53.765 15.776 54.173 15.776C54.581 15.776 54.9494 15.708 55.278 15.572C55.6067 15.4247 55.8844 15.232 56.111 14.994C56.3377 14.7447 56.5134 14.45 56.638 14.11C56.7627 13.7587 56.825 13.379 56.825 12.971C56.825 12.563 56.7627 12.189 56.638 11.849C56.5134 11.4977 56.3377 11.203 56.111 10.965C55.8844 10.7157 55.6067 10.523 55.278 10.387C54.9494 10.2397 54.581 10.166 54.173 10.166C53.765 10.166 53.3967 10.2397 53.068 10.387C52.7394 10.523 52.4617 10.7157 52.235 10.965C52.0084 11.203 51.8327 11.4977 51.708 11.849C51.5834 12.189 51.521 12.563 51.521 12.971ZM49.889 12.971C49.889 12.3817 49.9967 11.832 50.212 11.322C50.4387 10.812 50.7447 10.3643 51.13 9.979C51.5154 9.59367 51.9687 9.29333 52.49 9.078C53.0114 8.85133 53.5724 8.738 54.173 8.738C54.7737 8.738 55.3347 8.85133 55.856 9.078C56.3774 9.29333 56.8307 9.59367 57.216 9.979C57.6014 10.3643 57.9017 10.812 58.117 11.322C58.3437 11.832 58.457 12.3817 58.457 12.971C58.457 13.5603 58.3437 14.1157 58.117 14.637C57.9017 15.147 57.6014 15.5947 57.216 15.98C56.8307 16.354 56.3774 16.6543 55.856 16.881C55.3347 17.0963 54.7737 17.204 54.173 17.204C53.5724 17.204 53.0114 17.0963 52.49 16.881C51.9687 16.6543 51.5154 16.354 51.13 15.98C50.7447 15.5947 50.4387 15.147 50.212 14.637C49.9967 14.1157 49.889 13.5603 49.889 12.971ZM60.4078 9.928C60.8384 9.53133 61.3371 9.23667 61.9038 9.044C62.4704 8.84 63.0371 8.738 63.6038 8.738C64.1931 8.738 64.6974 8.81167 65.1168 8.959C65.5474 9.10633 65.8988 9.30467 66.1708 9.554C66.4428 9.80333 66.6411 10.0923 66.7658 10.421C66.9018 10.7383 66.9698 11.0727 66.9698 11.424V15.538C66.9698 15.8213 66.9754 16.082 66.9868 16.32C66.9981 16.558 67.0151 16.7847 67.0378 17H65.6778C65.6438 16.592 65.6268 16.184 65.6268 15.776H65.5928C65.2528 16.2973 64.8504 16.6657 64.3858 16.881C63.9211 17.0963 63.3828 17.204 62.7708 17.204C62.3968 17.204 62.0398 17.153 61.6998 17.051C61.3598 16.949 61.0594 16.796 60.7988 16.592C60.5494 16.388 60.3511 16.1387 60.2038 15.844C60.0564 15.538 59.9828 15.1867 59.9828 14.79C59.9828 14.2687 60.0961 13.8323 60.3228 13.481C60.5608 13.1297 60.8781 12.8463 61.2748 12.631C61.6828 12.4043 62.1531 12.2457 62.6858 12.155C63.2298 12.053 63.8078 12.002 64.4198 12.002H65.5418V11.662C65.5418 11.458 65.5021 11.254 65.4228 11.05C65.3434 10.846 65.2244 10.6647 65.0658 10.506C64.9071 10.336 64.7088 10.2057 64.4708 10.115C64.2328 10.013 63.9494 9.962 63.6208 9.962C63.3261 9.962 63.0654 9.99033 62.8388 10.047C62.6234 10.1037 62.4251 10.1773 62.2438 10.268C62.0624 10.3473 61.8981 10.4437 61.7508 10.557C61.6034 10.6703 61.4618 10.778 61.3258 10.88L60.4078 9.928ZM64.7258 13.124C64.3631 13.124 63.9891 13.1467 63.6038 13.192C63.2298 13.226 62.8841 13.2997 62.5668 13.413C62.2608 13.5263 62.0058 13.685 61.8018 13.889C61.6091 14.093 61.5128 14.3537 61.5128 14.671C61.5128 15.1357 61.6658 15.47 61.9718 15.674C62.2891 15.878 62.7141 15.98 63.2468 15.98C63.6661 15.98 64.0231 15.912 64.3178 15.776C64.6124 15.6287 64.8504 15.4417 65.0318 15.215C65.2131 14.9883 65.3434 14.739 65.4228 14.467C65.5021 14.1837 65.5418 13.906 65.5418 13.634V13.124H64.7258ZM77.2642 17H75.7342V15.844H75.7002C75.4055 16.2747 74.9975 16.609 74.4762 16.847C73.9662 17.085 73.4392 17.204 72.8952 17.204C72.2719 17.204 71.7052 17.0963 71.1952 16.881C70.6965 16.6657 70.2659 16.3653 69.9032 15.98C69.5519 15.5947 69.2799 15.147 69.0872 14.637C68.8945 14.127 68.7982 13.5717 68.7982 12.971C68.7982 12.3703 68.8945 11.815 69.0872 11.305C69.2799 10.7837 69.5519 10.336 69.9032 9.962C70.2659 9.57667 70.6965 9.27633 71.1952 9.061C71.7052 8.84567 72.2719 8.738 72.8952 8.738C73.4732 8.738 74.0172 8.86267 74.5272 9.112C75.0372 9.35 75.4282 9.67867 75.7002 10.098H75.7342V4.148H77.2642V17ZM73.0822 15.776C73.4902 15.776 73.8585 15.708 74.1872 15.572C74.5159 15.4247 74.7935 15.232 75.0202 14.994C75.2469 14.7447 75.4225 14.45 75.5472 14.11C75.6719 13.7587 75.7342 13.379 75.7342 12.971C75.7342 12.563 75.6719 12.189 75.5472 11.849C75.4225 11.4977 75.2469 11.203 75.0202 10.965C74.7935 10.7157 74.5159 10.523 74.1872 10.387C73.8585 10.2397 73.4902 10.166 73.0822 10.166C72.6742 10.166 72.3059 10.2397 71.9772 10.387C71.6485 10.523 71.3709 10.7157 71.1442 10.965C70.9175 11.203 70.7419 11.4977 70.6172 11.849C70.4925 12.189 70.4302 12.563 70.4302 12.971C70.4302 13.379 70.4925 13.7587 70.6172 14.11C70.7419 14.45 70.9175 14.7447 71.1442 14.994C71.3709 15.232 71.6485 15.4247 71.9772 15.572C72.3059 15.708 72.6742 15.776 73.0822 15.776ZM87.2202 6.494H83.3442V4.964H92.7282V6.494H88.8522V17H87.2202V6.494ZM99.505 17H97.975V15.759H97.941C97.7483 16.1897 97.414 16.541 96.938 16.813C96.462 17.0737 95.9123 17.204 95.289 17.204C94.8923 17.204 94.5183 17.1417 94.167 17.017C93.8157 16.9037 93.504 16.7223 93.232 16.473C92.9713 16.2237 92.7617 15.9063 92.603 15.521C92.4443 15.1243 92.365 14.6597 92.365 14.127V8.942H93.895V13.702C93.895 14.076 93.946 14.399 94.048 14.671C94.15 14.9317 94.286 15.147 94.456 15.317C94.626 15.4757 94.8187 15.5947 95.034 15.674C95.2607 15.742 95.493 15.776 95.731 15.776C96.0483 15.776 96.343 15.725 96.615 15.623C96.887 15.521 97.125 15.3623 97.329 15.147C97.533 14.9203 97.6917 14.637 97.805 14.297C97.9183 13.957 97.975 13.5547 97.975 13.09V8.942H99.505V17ZM109.886 17H108.356V15.844H108.322C108.028 16.2747 107.62 16.609 107.098 16.847C106.588 17.085 106.061 17.204 105.517 17.204C104.894 17.204 104.327 17.0963 103.817 16.881C103.319 16.6657 102.888 16.3653 102.525 15.98C102.174 15.5947 101.902 15.147 101.709 14.637C101.517 14.127 101.42 13.5717 101.42 12.971C101.42 12.3703 101.517 11.815 101.709 11.305C101.902 10.7837 102.174 10.336 102.525 9.962C102.888 9.57667 103.319 9.27633 103.817 9.061C104.327 8.84567 104.894 8.738 105.517 8.738C106.095 8.738 106.639 8.86267 107.149 9.112C107.659 9.35 108.05 9.67867 108.322 10.098H108.356V4.148H109.886V17ZM105.704 15.776C106.112 15.776 106.481 15.708 106.809 15.572C107.138 15.4247 107.416 15.232 107.642 14.994C107.869 14.7447 108.045 14.45 108.169 14.11C108.294 13.7587 108.356 13.379 108.356 12.971C108.356 12.563 108.294 12.189 108.169 11.849C108.045 11.4977 107.869 11.203 107.642 10.965C107.416 10.7157 107.138 10.523 106.809 10.387C106.481 10.2397 106.112 10.166 105.704 10.166C105.296 10.166 104.928 10.2397 104.599 10.387C104.271 10.523 103.993 10.7157 103.766 10.965C103.54 11.203 103.364 11.4977 103.239 11.849C103.115 12.189 103.052 12.563 103.052 12.971C103.052 13.379 103.115 13.7587 103.239 14.11C103.364 14.45 103.54 14.7447 103.766 14.994C103.993 15.232 104.271 15.4247 104.599 15.572C104.928 15.708 105.296 15.776 105.704 15.776ZM113.445 12.971C113.445 13.379 113.507 13.7587 113.632 14.11C113.757 14.45 113.932 14.7447 114.159 14.994C114.386 15.232 114.663 15.4247 114.992 15.572C115.321 15.708 115.689 15.776 116.097 15.776C116.505 15.776 116.873 15.708 117.202 15.572C117.531 15.4247 117.808 15.232 118.035 14.994C118.262 14.7447 118.437 14.45 118.562 14.11C118.687 13.7587 118.749 13.379 118.749 12.971C118.749 12.563 118.687 12.189 118.562 11.849C118.437 11.4977 118.262 11.203 118.035 10.965C117.808 10.7157 117.531 10.523 117.202 10.387C116.873 10.2397 116.505 10.166 116.097 10.166C115.689 10.166 115.321 10.2397 114.992 10.387C114.663 10.523 114.386 10.7157 114.159 10.965C113.932 11.203 113.757 11.4977 113.632 11.849C113.507 12.189 113.445 12.563 113.445 12.971ZM111.813 12.971C111.813 12.3817 111.921 11.832 112.136 11.322C112.363 10.812 112.669 10.3643 113.054 9.979C113.439 9.59367 113.893 9.29333 114.414 9.078C114.935 8.85133 115.496 8.738 116.097 8.738C116.698 8.738 117.259 8.85133 117.78 9.078C118.301 9.29333 118.755 9.59367 119.14 9.979C119.525 10.3643 119.826 10.812 120.041 11.322C120.268 11.832 120.381 12.3817 120.381 12.971C120.381 13.5603 120.268 14.1157 120.041 14.637C119.826 15.147 119.525 15.5947 119.14 15.98C118.755 16.354 118.301 16.6543 117.78 16.881C117.259 17.0963 116.698 17.204 116.097 17.204C115.496 17.204 114.935 17.0963 114.414 16.881C113.893 16.6543 113.439 16.354 113.054 15.98C112.669 15.5947 112.363 15.147 112.136 14.637C111.921 14.1157 111.813 13.5603 111.813 12.971Z" fill="#353B50"/>
<path d="M146 9H142V3H136V9H132L139 16L146 9ZM132 18V20H146V18H132Z" fill="black"/>
</svg>
