<svg enable-background="new 0 0 64 64" height="512" viewBox="0 0 64 64" width="512" xmlns="http://www.w3.org/2000/svg"><path d="m29.445 34.5v4c-12 3-11.945 7-11.945 14.182v9.818h37s0-3 0-11c0-6.851-1.001-10.125-16-14v-5.76z" fill="#f0f0e6"/><path d="m17.5 62.5h37s0-.611 0-2h-37z" fill="#dcdcd2"/><path d="m38.5 37.5v2c14.999 3.875 16 7.149 16 14 0-.633 0-1.29 0-2 0-6.851-1.001-10.125-16-14z" fill="#fffffa"/><path d="m25.304 39.745c-7.84 2.866-7.804 6.703-7.804 12.938v2c0-6.235-.037-10.072 7.804-12.938z" fill="#fffffa"/><path d="m30.5 63c-.248 0-.462-.184-.495-.436-.626-4.809-.025-8.963.001-9.138.041-.273.299-.458.568-.421.273.041.462.295.421.568-.006.042-.606 4.197.001 8.862.036.274-.157.524-.431.56-.023.004-.044.005-.065.005z" fill="#dcdcd2"/><path d="m21.5 63c-.276 0-.5-.224-.5-.5 0-.904-.49-2.129-.964-3.314-.51-1.273-1.036-2.59-1.036-3.686 0-2.072 1.953-6.978 2.036-7.186.103-.257.396-.381.65-.279.256.103.381.394.279.65-.02.05-1.965 4.934-1.965 6.815 0 .904.49 2.129.964 3.314.51 1.273 1.036 2.59 1.036 3.686 0 .276-.224.5-.5.5z" fill="#dcdcd2"/><path d="m45.5 63c-.276 0-.5-.224-.5-.5v-13c0-.276.224-.5.5-.5s.5.224.5.5v13c0 .276-.224.5-.5.5z" fill="#dcdcd2"/><path d="m38.5 40v-10.26l-9.055 2.76v6.5l2.055 1z" fill="#ffb4be"/><path d="m31.5 40.5 7-7.548s1.649 2.803 2.324 5.175c.676 2.373-.324 6.373-.324 6.373s-4-6-9-4z" fill="#f0f0e6"/><path d="m40.824 40.128c.096.337.155.708.191 1.094.08-1.061.065-2.195-.191-3.094-.676-2.372-2.324-5.175-2.324-5.175l-1.916 2.066c.525.416 3.622 2.939 4.24 5.109z" fill="#fffffa"/><path d="m31.5 40.5-2.055-6s-4.945 0-4.945 9c0 0 4-6 7-3z" fill="#f0f0e6"/><path d="m29.813 35.577-.368-1.077s-4.945 0-4.945 9c0 0 .016-.024.045-.066.362-6.251 3.823-7.582 5.268-7.857z" fill="#fffffa"/><path d="m24.5 44c-.048 0-.097-.007-.145-.021-.211-.064-.355-.259-.355-.479 0-1.32.106-2.53.315-3.596.053-.271.313-.448.587-.395.271.053.448.316.395.587-.114.58-.195 1.207-.243 1.876.975-1.127 2.57-2.63 4.255-2.796.441-.045.86.003 1.257.139l-1.594-4.652c-.089-.261.05-.545.311-.635.26-.089.545.05.635.311l2.056 6c.075.22-.011.463-.208.586-.196.123-.453.095-.618-.071-.523-.523-1.091-.743-1.738-.683-2.204.217-4.47 3.573-4.492 3.607-.097.141-.254.222-.418.222z" fill="#dcdcd2"/><path d="m40.5 45c-.165 0-.322-.082-.416-.222-.038-.057-3.833-5.638-8.398-3.813-.216.085-.465.012-.598-.181-.132-.193-.113-.452.045-.623l7-7.547c.107-.116.267-.177.42-.157.157.017.297.107.377.244.068.117 1.688 2.886 2.374 5.292.704 2.473-.278 6.462-.32 6.63-.048.192-.205.337-.399.372-.028.003-.057.005-.085.005zm-6.947-5.405c3.061 0 5.535 2.405 6.678 3.748.24-1.31.541-3.573.112-5.077-.468-1.645-1.435-3.532-1.944-4.469l-5.403 5.825c.188-.018.374-.027.557-.027z" fill="#dcdcd2"/><path d="m31.5 40.5s.761 3 3.761 4l-4.761 9z" fill="#f0f0e6"/><path d="m34.395 46.137.866-1.637c-3-1-3.761-4-3.761-4l-.235 3.061c.657.806 1.725 1.884 3.13 2.576z" fill="#fffffa"/><path d="m31.5 40.5s-2 3-4 4l3 9z" fill="#f0f0e6"/><path d="m31.327 42.748.173-2.248s-2 3-4 4l.556 1.668c1.455-.975 2.807-2.767 3.271-3.42z" fill="#fffffa"/><g fill="#dcdcd2"><path d="m30.5 54c-.046 0-.093-.006-.139-.02-.228-.066-.377-.283-.359-.519l1-13c.019-.244.211-.438.455-.459.237-.018.467.137.528.374.007.027.741 2.752 3.435 3.65.139.046.251.152.306.288s.047.29-.022.42l-4.761 9c-.089.167-.261.266-.443.266zm1.353-11.57-.67 8.709 3.373-6.376c-1.306-.577-2.161-1.503-2.703-2.333z"/><path d="m30.5 54c-.212 0-.405-.136-.474-.342l-3-9c-.079-.236.028-.494.25-.605 1.86-.93 3.789-3.801 3.808-3.83.126-.19.364-.27.579-.195s.353.284.335.511l-1 13c-.018.237-.201.429-.438.458-.019.002-.04.003-.06.003zm-2.395-9.265 2.086 6.258.679-8.827c-.712.864-1.714 1.928-2.765 2.569z"/><path d="m30.5 54c-.013 0-.026 0-.039-.001-.275-.021-.481-.262-.46-.537l1-13c.021-.275.25-.482.537-.46.275.021.481.262.46.537l-1 13c-.019.262-.239.461-.498.461z"/><path d="m27.5 55h-6c-.276 0-.5-.224-.5-.5v-2c0-.276.224-.5.5-.5h6c.276 0 .5.224.5.5v2c0 .276-.224.5-.5.5zm-5.5-1h5v-1h-5z"/><circle cx="33" cy="56" r="1"/></g><path d="m54.5 63h-37c-.276 0-.5-.224-.5-.5v-9.817c0-6.15 0-10.181 7.403-13.13 1.242-5.515 4.958-5.524 5.041-5.553.275 0 .498.222.5.497s-.219.5-.494.503c-.132.003-3.126.127-4.125 5.021-.034.167-.151.305-.31.366-7.015 2.71-7.015 6.084-7.015 12.209v9.404h36v-10.5c0-5.785-.512-8.962-11.51-12.358-.264-.081-.412-.361-.33-.625.081-.264.36-.416.625-.33 11.06 3.415 12.215 6.679 12.215 13.313v11c0 .276-.224.5-.5.5z" fill="#785ae6"/><path d="m31.5 6.5s4-3 10 0 7 11 6 14 5 15-5 14-7-7-7-7z" fill="#cb783f"/><path d="m41.5 8.5c4.292 2.146 6.017 6.844 6.29 10.446.321-3.618-1.139-9.871-6.29-12.446-6-3-10 0-10 0l.34 1.784c1.073-.628 4.67-2.279 9.66.216z" fill="#dc8c50"/><path d="m43.603 35.058c-.293 0-.597-.013-.914-.039-.275-.023-.48-.264-.458-.54.022-.275.256-.479.54-.458 1.958.16 3.306-.196 4.12-1.09 1.563-1.716.934-5.274.428-8.134-.331-1.871-.617-3.487-.293-4.457.898-2.697.027-10.506-5.75-13.395-3.638-1.818-6.486-1.379-8.234-.688-.258.1-.547-.025-.649-.282-.101-.257.025-.547.282-.649 1.587-.625 4.874-1.363 9.049.725 6.167 3.083 7.364 11.266 6.25 14.605-.243.729.036 2.301.33 3.966.544 3.075 1.221 6.902-.673 8.981-.88.968-2.232 1.455-4.028 1.455z" fill="#785ae6"/><path d="m39.5 28.5c0 3.314-2.686 6-6 6h-1-4c-3.866 0-7-3.134-7-7v-14h18v8h2c1.657 0 3 1.343 3 3v1c0 1.657-1.343 3-3 3z" fill="#ffc8d2"/><path d="m21.5 22.866c1.668.075 3.663-.032 6-.366 3.675-.525 6.622-4.239 7.963-8h-13.963z" fill="#ffb4be"/><path d="m34.5 22c-.209 0-.404-.132-.474-.342-.35-1.05-1.013-1.651-1.972-1.788-.738-.106-1.39.102-1.396.104-.265.088-.545-.054-.632-.316s.054-.545.316-.632c.035-.012.873-.288 1.854-.146.938.134 2.181.67 2.778 2.462.087.262-.054.545-.316.632-.053.018-.106.026-.158.026z" fill="#785ae6"/><path d="m33.5 35h-5c-4.136 0-7.5-3.364-7.5-7.5v-10c0-.276.224-.5.5-.5s.5.224.5.5v10c0 3.584 2.916 6.5 6.5 6.5h5c.276 0 .5.224.5.5s-.224.5-.5.5z" fill="#785ae6"/><path d="m34.5 6.5c4.371 2.428 0 13-7 14s-11 0-12-2c0 0 3-1 4-4s6-13 15-8z" fill="#cb783f"/><path d="m16.846 19.814c.932-.604 2.1-1.651 2.654-3.314 1-3 6-13 15-8 .952.529 1.467 1.456 1.653 2.575.284-1.998-.176-3.754-1.653-4.575-9-5-14 5-15 8s-4 4-4 4c.254.508.704.951 1.346 1.314z" fill="#dc8c50"/><g fill="#785ae6"><path d="m21.417 21.367c-.008 0-.017 0-.025 0-3.364-.163-5.557-1.077-6.339-2.643-.064-.129-.07-.28-.015-.414s.166-.237.303-.284c.028-.009 2.779-.968 3.685-3.684.811-2.434 3.227-7.048 7.134-8.906 2.151-1.024 4.465-1.082 6.876-.17.258.098.389.386.291.645-.098.258-.387.388-.645.291-2.146-.812-4.197-.766-6.094.138-3.611 1.717-5.906 6.193-6.615 8.32-.796 2.389-2.736 3.592-3.722 4.067.825.941 2.633 1.518 5.189 1.642.275.014.488.248.475.524-.012.266-.233.474-.498.474z"/><path d="m41.5 29h-2c-.276 0-.5-.224-.5-.5s.224-.5.5-.5h2c1.378 0 2.5-1.122 2.5-2.5v-1c0-1.378-1.122-2.5-2.5-2.5h-1.372c-.276 0-.5-.224-.5-.5s.224-.5.5-.5h1.372c1.93 0 3.5 1.57 3.5 3.5v1c0 1.93-1.57 3.5-3.5 3.5z"/><path d="m31.5 26c-.276 0-.5-.224-.5-.5v-3c0-.276.224-.5.5-.5s.5.224.5.5v3c0 .276-.224.5-.5.5z"/><path d="m23.5 26c-.276 0-.5-.224-.5-.5v-3c0-.276.224-.5.5-.5s.5.224.5.5v3c0 .276-.224.5-.5.5z"/><path d="m26.5 28c-1.739 0-2.892-1.292-2.892-2.146 0-.243.088-.461.249-.616.112-.109.315-.238.643-.238.289 0 1.034-1.186 1.526-2.658.087-.262.371-.404.632-.316.262.087.403.37.316.632-.321.964-1.173 3.155-2.327 3.331.042.094.123.223.258.363.188.195.719.648 1.595.648.276 0 .5.224.5.5s-.224.5-.5.5z"/><path d="m28.5 31c-2.472 0-2.5-1.439-2.5-1.5 0-.276.224-.5.5-.5.268 0 .487.211.5.476.028.184.376.524 1.5.524 2.23 0 2.506-.566 2.508-.572 0-.276.22-.464.496-.464s.496.26.496.536c0 .352-.252 1.5-3.5 1.5zm-1.5-1.5h.01z"/><path d="m31.5 24.041c-.125 0-.25-.046-.346-.14-.199-.191-.206-.508-.014-.707l1-1.041c.192-.2.508-.206.707-.014.199.191.206.508.014.707l-1 1.041c-.099.103-.23.154-.361.154z"/><path d="m23.5 24.041c-.131 0-.262-.051-.36-.154l-1-1.041c-.191-.199-.185-.516.014-.707.198-.192.516-.186.707.014l1 1.041c.191.199.185.516-.014.707-.097.094-.222.14-.347.14z"/></g><path d="m21.5 12-2-5.667s3-4.833 9-4.833c8 0 11 4.667 11 4.667l-3 5.833s-9-4.667-15 0z" fill="#f0f0e6"/><path d="m28.5 3.5c5.943 0 9.123 2.573 10.367 3.897l.633-1.23s-3-4.667-11-4.667c-6 0-9 4.833-9 4.833l.477 1.352c1.057-1.314 3.893-4.185 8.523-4.185z" fill="#fffffa"/><path d="m21.5 12.5c-.206 0-.399-.128-.472-.333l-2-5.667c-.05-.143-.033-.301.047-.43.129-.207 3.218-5.07 9.425-5.07 8.179 0 11.292 4.696 11.42 4.896.097.15.106.34.024.499l-3 5.833c-.126.245-.428.343-.673.216-.246-.126-.342-.428-.216-.673l2.858-5.557c-.719-.901-3.81-4.214-10.413-4.214-4.969 0-7.818 3.536-8.444 4.406l1.916 5.427c.092.26-.045.546-.305.638-.056.02-.112.029-.167.029z" fill="#785ae6"/><path d="m27 3h2v5h-2z" fill="#e678a0"/><path d="m27 3.608c.478-.067.976-.108 1.5-.108.172 0 .333.009.5.013v-.513h-2z" fill="#fa8cb4"/><path d="m27 3h2v5h-2z" fill="#e678a0" transform="matrix(0 -1 1 0 22.5 33.5)"/><path d="m34.544 13.474s3.965 4.035 3.912 10.035c0 0 2.009-.982 2.035-3.982v-6.053z" fill="#cb783f"/><path d="m40.799 37.848-2.598-1.5 2.25-3.897c.414-.717 1.332-.963 2.049-.549s.963 1.332.549 2.049z" fill="#aad2ff"/><path d="m40.799 38.348c-.087 0-.173-.023-.25-.067l-2.598-1.5c-.239-.138-.321-.444-.183-.683l2.25-3.897c.267-.463.698-.794 1.214-.932.517-.137 1.055-.067 1.518.2.462.267.793.698.932 1.214s.067 1.055-.2 1.518l-2.25 3.897c-.066.115-.176.199-.304.233-.042.011-.086.017-.129.017zm-1.915-2.183 1.731 1 2-3.464c.134-.231.169-.501.1-.759s-.234-.474-.466-.607c-.231-.133-.5-.169-.759-.1-.258.069-.474.235-.607.466z" fill="#785ae6"/><path d="m40.5 35.5c3.376 1.266 2 7-1 9s-6 2-7 5c0 0-2-4 1-6 1.861-1.24-1-11 7-8z" fill="#cb783f"/><path d="m32.5 50c-.188 0-.362-.106-.447-.276-.76-1.52-1.494-4.864 1.17-6.64.23-.153.54-.091.693.139s.091.54-.139.693c-1.712 1.142-1.539 3.085-1.214 4.292.874-1.356 2.281-1.975 3.753-2.623.945-.416 1.922-.846 2.907-1.502 1.738-1.159 2.958-3.783 2.72-5.85-.091-.791-.446-1.826-1.619-2.266-1.33-.499-2.408-.652-3.205-.455-.27.066-.539-.098-.605-.365-.066-.268.097-.539.365-.605 1.012-.25 2.253-.09 3.796.489 1.284.481 2.086 1.578 2.26 3.087.281 2.443-1.106 5.429-3.159 6.797-1.057.705-2.12 1.172-3.059 1.585-1.763.775-3.155 1.388-3.745 3.157-.064.192-.237.326-.438.34-.011.003-.022.003-.034.003z" fill="#785ae6"/></svg>