<svg width="172" height="24" viewBox="0 0 172 24" fill="none" xmlns="http://www.w3.org/2000/svg">
<path d="M1.275 5.464H5.474C6.324 5.464 7.06633 5.56033 7.701 5.753C8.347 5.94567 8.90233 6.20633 9.367 6.535C9.843 6.85233 10.234 7.22067 10.54 7.64C10.8573 8.05933 11.1067 8.49 11.288 8.932C11.4693 9.374 11.5997 9.816 11.679 10.258C11.7583 10.7 11.798 11.108 11.798 11.482C11.798 12.2527 11.6563 13.0007 11.373 13.726C11.0897 14.44 10.6703 15.0803 10.115 15.647C9.55967 16.2023 8.86833 16.65 8.041 16.99C7.225 17.33 6.27867 17.5 5.202 17.5H1.275V5.464ZM2.907 15.97H4.964C5.65533 15.97 6.307 15.8793 6.919 15.698C7.54233 15.5053 8.08633 15.222 8.551 14.848C9.01567 14.474 9.384 14.0093 9.656 13.454C9.928 12.8873 10.064 12.23 10.064 11.482C10.064 11.0967 10.0017 10.649 9.877 10.139C9.75233 9.61767 9.51433 9.12467 9.163 8.66C8.823 8.19533 8.347 7.80433 7.735 7.487C7.123 7.15833 6.32967 6.994 5.355 6.994H2.907V15.97ZM14.9126 14.032C14.9126 14.3833 14.9863 14.7063 15.1336 15.001C15.2923 15.2843 15.4963 15.528 15.7456 15.732C15.9949 15.936 16.2839 16.0947 16.6126 16.208C16.9413 16.3213 17.2813 16.378 17.6326 16.378C18.1086 16.378 18.5223 16.2703 18.8736 16.055C19.2249 15.8283 19.5479 15.5337 19.8426 15.171L20.9986 16.055C20.1486 17.1543 18.9586 17.704 17.4286 17.704C16.7939 17.704 16.2159 17.5963 15.6946 17.381C15.1846 17.1657 14.7483 16.871 14.3856 16.497C14.0343 16.1117 13.7623 15.664 13.5696 15.154C13.3769 14.6327 13.2806 14.0717 13.2806 13.471C13.2806 12.8703 13.3826 12.315 13.5866 11.805C13.8019 11.2837 14.0909 10.836 14.4536 10.462C14.8276 10.0767 15.2696 9.77633 15.7796 9.561C16.2896 9.34567 16.8449 9.238 17.4456 9.238C18.1596 9.238 18.7603 9.36267 19.2476 9.612C19.7463 9.86133 20.1543 10.19 20.4716 10.598C20.7889 10.9947 21.0156 11.448 21.1516 11.958C21.2989 12.4567 21.3726 12.9667 21.3726 13.488V14.032H14.9126ZM19.7406 12.808C19.7293 12.468 19.6726 12.1563 19.5706 11.873C19.4799 11.5897 19.3383 11.346 19.1456 11.142C18.9529 10.9267 18.7093 10.7623 18.4146 10.649C18.1313 10.5243 17.7969 10.462 17.4116 10.462C17.0376 10.462 16.6919 10.5357 16.3746 10.683C16.0686 10.819 15.8079 11.0003 15.5926 11.227C15.3773 11.4537 15.2073 11.7087 15.0826 11.992C14.9693 12.264 14.9126 12.536 14.9126 12.808H19.7406ZM27.4869 11.465C27.3055 11.2383 27.0789 11.0513 26.8069 10.904C26.5462 10.7453 26.2232 10.666 25.8379 10.666C25.4752 10.666 25.1579 10.7453 24.8859 10.904C24.6252 11.0513 24.4949 11.2723 24.4949 11.567C24.4949 11.805 24.5685 11.9977 24.7159 12.145C24.8745 12.2923 25.0559 12.4113 25.2599 12.502C25.4752 12.5927 25.7019 12.6607 25.9399 12.706C26.1779 12.7513 26.3819 12.791 26.5519 12.825C26.8805 12.9043 27.1865 13.0007 27.4699 13.114C27.7645 13.2273 28.0139 13.3747 28.2179 13.556C28.4332 13.7373 28.5975 13.9583 28.7109 14.219C28.8355 14.4797 28.8979 14.797 28.8979 15.171C28.8979 15.6243 28.8015 16.0153 28.6089 16.344C28.4162 16.6613 28.1669 16.922 27.8609 17.126C27.5549 17.33 27.2035 17.4773 26.8069 17.568C26.4215 17.6587 26.0305 17.704 25.6339 17.704C24.9652 17.704 24.3759 17.602 23.8659 17.398C23.3672 17.194 22.9195 16.82 22.5229 16.276L23.6789 15.324C23.9282 15.5733 24.2059 15.7943 24.5119 15.987C24.8179 16.1797 25.1919 16.276 25.6339 16.276C25.8265 16.276 26.0192 16.259 26.2119 16.225C26.4159 16.1797 26.5915 16.1173 26.7389 16.038C26.8975 15.9473 27.0222 15.8397 27.1129 15.715C27.2149 15.579 27.2659 15.426 27.2659 15.256C27.2659 15.0293 27.1922 14.8423 27.0449 14.695C26.9089 14.5477 26.7389 14.4343 26.5349 14.355C26.3422 14.2643 26.1325 14.1963 25.9059 14.151C25.6905 14.0943 25.4979 14.049 25.3279 14.015C24.9992 13.9357 24.6875 13.845 24.3929 13.743C24.0982 13.641 23.8375 13.505 23.6109 13.335C23.3842 13.165 23.2029 12.9497 23.0669 12.689C22.9309 12.4283 22.8629 12.1053 22.8629 11.72C22.8629 11.3007 22.9479 10.938 23.1179 10.632C23.2992 10.3147 23.5315 10.054 23.8149 9.85C24.1095 9.646 24.4382 9.493 24.8009 9.391C25.1749 9.289 25.5489 9.238 25.9229 9.238C26.4669 9.238 26.9882 9.34 27.4869 9.544C27.9855 9.748 28.3822 10.088 28.6769 10.564L27.4869 11.465ZM31.9126 14.032C31.9126 14.3833 31.9863 14.7063 32.1336 15.001C32.2923 15.2843 32.4963 15.528 32.7456 15.732C32.9949 15.936 33.2839 16.0947 33.6126 16.208C33.9413 16.3213 34.2813 16.378 34.6326 16.378C35.1086 16.378 35.5223 16.2703 35.8736 16.055C36.2249 15.8283 36.5479 15.5337 36.8426 15.171L37.9986 16.055C37.1486 17.1543 35.9586 17.704 34.4286 17.704C33.7939 17.704 33.2159 17.5963 32.6946 17.381C32.1846 17.1657 31.7483 16.871 31.3856 16.497C31.0343 16.1117 30.7623 15.664 30.5696 15.154C30.3769 14.6327 30.2806 14.0717 30.2806 13.471C30.2806 12.8703 30.3826 12.315 30.5866 11.805C30.8019 11.2837 31.0909 10.836 31.4536 10.462C31.8276 10.0767 32.2696 9.77633 32.7796 9.561C33.2896 9.34567 33.8449 9.238 34.4456 9.238C35.1596 9.238 35.7603 9.36267 36.2476 9.612C36.7463 9.86133 37.1543 10.19 37.4716 10.598C37.7889 10.9947 38.0156 11.448 38.1516 11.958C38.2989 12.4567 38.3726 12.9667 38.3726 13.488V14.032H31.9126ZM36.7406 12.808C36.7293 12.468 36.6726 12.1563 36.5706 11.873C36.4799 11.5897 36.3383 11.346 36.1456 11.142C35.9529 10.9267 35.7093 10.7623 35.4146 10.649C35.1313 10.5243 34.7969 10.462 34.4116 10.462C34.0376 10.462 33.6919 10.5357 33.3746 10.683C33.0686 10.819 32.8079 11.0003 32.5926 11.227C32.3773 11.4537 32.2073 11.7087 32.0826 11.992C31.9693 12.264 31.9126 12.536 31.9126 12.808H36.7406ZM40.3219 4.648H41.8519V17.5H40.3219V4.648ZM45.4429 14.032C45.4429 14.3833 45.5165 14.7063 45.6639 15.001C45.8225 15.2843 46.0265 15.528 46.2759 15.732C46.5252 15.936 46.8142 16.0947 47.1429 16.208C47.4715 16.3213 47.8115 16.378 48.1629 16.378C48.6389 16.378 49.0525 16.2703 49.4039 16.055C49.7552 15.8283 50.0782 15.5337 50.3729 15.171L51.5289 16.055C50.6789 17.1543 49.4889 17.704 47.9589 17.704C47.3242 17.704 46.7462 17.5963 46.2249 17.381C45.7149 17.1657 45.2785 16.871 44.9159 16.497C44.5645 16.1117 44.2925 15.664 44.0999 15.154C43.9072 14.6327 43.8109 14.0717 43.8109 13.471C43.8109 12.8703 43.9129 12.315 44.1169 11.805C44.3322 11.2837 44.6212 10.836 44.9839 10.462C45.3579 10.0767 45.7999 9.77633 46.3099 9.561C46.8199 9.34567 47.3752 9.238 47.9759 9.238C48.6899 9.238 49.2905 9.36267 49.7779 9.612C50.2765 9.86133 50.6845 10.19 51.0019 10.598C51.3192 10.9947 51.5459 11.448 51.6819 11.958C51.8292 12.4567 51.9029 12.9667 51.9029 13.488V14.032H45.4429ZM50.2709 12.808C50.2595 12.468 50.2029 12.1563 50.1009 11.873C50.0102 11.5897 49.8685 11.346 49.6759 11.142C49.4832 10.9267 49.2395 10.7623 48.9449 10.649C48.6615 10.5243 48.3272 10.462 47.9419 10.462C47.5679 10.462 47.2222 10.5357 46.9049 10.683C46.5989 10.819 46.3382 11.0003 46.1229 11.227C45.9075 11.4537 45.7375 11.7087 45.6129 11.992C45.4995 12.264 45.4429 12.536 45.4429 12.808H50.2709ZM59.4961 11.584C59.2128 11.2893 58.9125 11.0683 58.5951 10.921C58.2891 10.7623 57.9208 10.683 57.4901 10.683C57.0708 10.683 56.7025 10.7623 56.3851 10.921C56.0791 11.0683 55.8185 11.278 55.6031 11.55C55.3991 11.8107 55.2405 12.1167 55.1271 12.468C55.0251 12.808 54.9741 13.165 54.9741 13.539C54.9741 13.913 55.0365 14.27 55.1611 14.61C55.2858 14.9387 55.4615 15.2277 55.6881 15.477C55.9148 15.7263 56.1868 15.9247 56.5041 16.072C56.8215 16.208 57.1785 16.276 57.5751 16.276C58.0058 16.276 58.3741 16.2023 58.6801 16.055C58.9861 15.8963 59.2695 15.6697 59.5301 15.375L60.6181 16.463C60.2215 16.905 59.7568 17.2223 59.2241 17.415C58.7028 17.6077 58.1475 17.704 57.5581 17.704C56.9348 17.704 56.3625 17.602 55.8411 17.398C55.3311 17.194 54.8891 16.9107 54.5151 16.548C54.1411 16.174 53.8521 15.732 53.6481 15.222C53.4441 14.7007 53.3421 14.1283 53.3421 13.505C53.3421 12.8817 53.4441 12.3093 53.6481 11.788C53.8521 11.2667 54.1355 10.819 54.4981 10.445C54.8721 10.071 55.3141 9.782 55.8241 9.578C56.3455 9.36267 56.9235 9.255 57.5581 9.255C58.1475 9.255 58.7085 9.36267 59.2411 9.578C59.7851 9.782 60.2555 10.0993 60.6521 10.53L59.4961 11.584ZM62.0533 9.442H63.5833V17.5H62.0533V9.442ZM61.6963 6.552C61.6963 6.246 61.804 5.98533 62.0193 5.77C62.246 5.54333 62.5123 5.43 62.8183 5.43C63.1243 5.43 63.385 5.54333 63.6003 5.77C63.827 5.98533 63.9403 6.246 63.9403 6.552C63.9403 6.858 63.827 7.12433 63.6003 7.351C63.385 7.56633 63.1243 7.674 62.8183 7.674C62.5123 7.674 62.246 7.56633 62.0193 7.351C61.804 7.12433 61.6963 6.858 61.6963 6.552ZM67.2593 13.471C67.2593 13.879 67.3216 14.2587 67.4463 14.61C67.571 14.95 67.7466 15.2447 67.9733 15.494C68.2 15.732 68.4776 15.9247 68.8063 16.072C69.135 16.208 69.5033 16.276 69.9113 16.276C70.3193 16.276 70.6876 16.208 71.0163 16.072C71.345 15.9247 71.6226 15.732 71.8493 15.494C72.076 15.2447 72.2516 14.95 72.3763 14.61C72.501 14.2587 72.5633 13.879 72.5633 13.471C72.5633 13.063 72.501 12.689 72.3763 12.349C72.2516 11.9977 72.076 11.703 71.8493 11.465C71.6226 11.2157 71.345 11.023 71.0163 10.887C70.6876 10.7397 70.3193 10.666 69.9113 10.666C69.5033 10.666 69.135 10.7397 68.8063 10.887C68.4776 11.023 68.2 11.2157 67.9733 11.465C67.7466 11.703 67.571 11.9977 67.4463 12.349C67.3216 12.689 67.2593 13.063 67.2593 13.471ZM65.6273 13.471C65.6273 12.8817 65.735 12.332 65.9503 11.822C66.177 11.312 66.483 10.8643 66.8683 10.479C67.2536 10.0937 67.707 9.79333 68.2283 9.578C68.7496 9.35133 69.3106 9.238 69.9113 9.238C70.512 9.238 71.073 9.35133 71.5943 9.578C72.1156 9.79333 72.569 10.0937 72.9543 10.479C73.3396 10.8643 73.64 11.312 73.8553 11.822C74.082 12.332 74.1953 12.8817 74.1953 13.471C74.1953 14.0603 74.082 14.6157 73.8553 15.137C73.64 15.647 73.3396 16.0947 72.9543 16.48C72.569 16.854 72.1156 17.1543 71.5943 17.381C71.073 17.5963 70.512 17.704 69.9113 17.704C69.3106 17.704 68.7496 17.5963 68.2283 17.381C67.707 17.1543 67.2536 16.854 66.8683 16.48C66.483 16.0947 66.177 15.647 65.9503 15.137C65.735 14.6157 65.6273 14.0603 65.6273 13.471ZM76.1121 9.442H77.6421V10.683H77.6761C77.8687 10.2523 78.2031 9.90667 78.6791 9.646C79.1551 9.374 79.7047 9.238 80.3281 9.238C80.7134 9.238 81.0817 9.30033 81.4331 9.425C81.7957 9.53833 82.1074 9.71967 82.3681 9.969C82.6401 10.2183 82.8554 10.5413 83.0141 10.938C83.1727 11.3233 83.2521 11.7823 83.2521 12.315V17.5H81.7221V12.74C81.7221 12.366 81.6711 12.0487 81.5691 11.788C81.4671 11.516 81.3311 11.3007 81.1611 11.142C80.9911 10.972 80.7927 10.853 80.5661 10.785C80.3507 10.7057 80.1241 10.666 79.8861 10.666C79.5687 10.666 79.2741 10.717 79.0021 10.819C78.7301 10.921 78.4921 11.0853 78.2881 11.312C78.0841 11.5273 77.9254 11.805 77.8121 12.145C77.6987 12.485 77.6421 12.8873 77.6421 13.352V17.5H76.1121V9.442ZM85.5923 10.428C86.023 10.0313 86.5217 9.73667 87.0883 9.544C87.655 9.34 88.2217 9.238 88.7883 9.238C89.3777 9.238 89.882 9.31167 90.3013 9.459C90.732 9.60633 91.0833 9.80467 91.3553 10.054C91.6273 10.3033 91.8257 10.5923 91.9503 10.921C92.0863 11.2383 92.1543 11.5727 92.1543 11.924V16.038C92.1543 16.3213 92.16 16.582 92.1713 16.82C92.1827 17.058 92.1997 17.2847 92.2223 17.5H90.8623C90.8283 17.092 90.8113 16.684 90.8113 16.276H90.7773C90.4373 16.7973 90.035 17.1657 89.5703 17.381C89.1057 17.5963 88.5673 17.704 87.9553 17.704C87.5813 17.704 87.2243 17.653 86.8843 17.551C86.5443 17.449 86.244 17.296 85.9833 17.092C85.734 16.888 85.5357 16.6387 85.3883 16.344C85.241 16.038 85.1673 15.6867 85.1673 15.29C85.1673 14.7687 85.2807 14.3323 85.5073 13.981C85.7453 13.6297 86.0627 13.3463 86.4593 13.131C86.8673 12.9043 87.3377 12.7457 87.8703 12.655C88.4143 12.553 88.9923 12.502 89.6043 12.502H90.7263V12.162C90.7263 11.958 90.6867 11.754 90.6073 11.55C90.528 11.346 90.409 11.1647 90.2503 11.006C90.0917 10.836 89.8933 10.7057 89.6553 10.615C89.4173 10.513 89.134 10.462 88.8053 10.462C88.5107 10.462 88.25 10.4903 88.0233 10.547C87.808 10.6037 87.6097 10.6773 87.4283 10.768C87.247 10.8473 87.0827 10.9437 86.9353 11.057C86.788 11.1703 86.6463 11.278 86.5103 11.38L85.5923 10.428ZM89.9103 13.624C89.5477 13.624 89.1737 13.6467 88.7883 13.692C88.4143 13.726 88.0687 13.7997 87.7513 13.913C87.4453 14.0263 87.1903 14.185 86.9863 14.389C86.7937 14.593 86.6973 14.8537 86.6973 15.171C86.6973 15.6357 86.8503 15.97 87.1563 16.174C87.4737 16.378 87.8987 16.48 88.4313 16.48C88.8507 16.48 89.2077 16.412 89.5023 16.276C89.797 16.1287 90.035 15.9417 90.2163 15.715C90.3977 15.4883 90.528 15.239 90.6073 14.967C90.6867 14.6837 90.7263 14.406 90.7263 14.134V13.624H89.9103ZM94.3738 9.442H95.9038V10.683H95.9378C96.0398 10.4677 96.1758 10.275 96.3458 10.105C96.5158 9.92367 96.7028 9.77067 96.9068 9.646C97.1221 9.52133 97.3544 9.425 97.6038 9.357C97.8531 9.27767 98.1024 9.238 98.3518 9.238C98.6011 9.238 98.8278 9.272 99.0318 9.34L98.9638 10.989C98.8391 10.955 98.7144 10.9267 98.5898 10.904C98.4651 10.8813 98.3404 10.87 98.2158 10.87C97.4678 10.87 96.8954 11.0797 96.4988 11.499C96.1021 11.9183 95.9038 12.57 95.9038 13.454V17.5H94.3738V9.442ZM108.304 6.994H104.428V5.464H113.812V6.994H109.936V17.5H108.304V6.994ZM120.589 17.5H119.059V16.259H119.025C118.832 16.6897 118.498 17.041 118.022 17.313C117.546 17.5737 116.996 17.704 116.373 17.704C115.976 17.704 115.602 17.6417 115.251 17.517C114.9 17.4037 114.588 17.2223 114.316 16.973C114.055 16.7237 113.846 16.4063 113.687 16.021C113.528 15.6243 113.449 15.1597 113.449 14.627V9.442H114.979V14.202C114.979 14.576 115.03 14.899 115.132 15.171C115.234 15.4317 115.37 15.647 115.54 15.817C115.71 15.9757 115.903 16.0947 116.118 16.174C116.345 16.242 116.577 16.276 116.815 16.276C117.132 16.276 117.427 16.225 117.699 16.123C117.971 16.021 118.209 15.8623 118.413 15.647C118.617 15.4203 118.776 15.137 118.889 14.797C119.002 14.457 119.059 14.0547 119.059 13.59V9.442H120.589V17.5ZM130.97 17.5H129.44V16.344H129.406C129.112 16.7747 128.704 17.109 128.182 17.347C127.672 17.585 127.145 17.704 126.601 17.704C125.978 17.704 125.411 17.5963 124.901 17.381C124.403 17.1657 123.972 16.8653 123.609 16.48C123.258 16.0947 122.986 15.647 122.793 15.137C122.601 14.627 122.504 14.0717 122.504 13.471C122.504 12.8703 122.601 12.315 122.793 11.805C122.986 11.2837 123.258 10.836 123.609 10.462C123.972 10.0767 124.403 9.77633 124.901 9.561C125.411 9.34567 125.978 9.238 126.601 9.238C127.179 9.238 127.723 9.36267 128.233 9.612C128.743 9.85 129.134 10.1787 129.406 10.598H129.44V4.648H130.97V17.5ZM126.788 16.276C127.196 16.276 127.565 16.208 127.893 16.072C128.222 15.9247 128.5 15.732 128.726 15.494C128.953 15.2447 129.129 14.95 129.253 14.61C129.378 14.2587 129.44 13.879 129.44 13.471C129.44 13.063 129.378 12.689 129.253 12.349C129.129 11.9977 128.953 11.703 128.726 11.465C128.5 11.2157 128.222 11.023 127.893 10.887C127.565 10.7397 127.196 10.666 126.788 10.666C126.38 10.666 126.012 10.7397 125.683 10.887C125.355 11.023 125.077 11.2157 124.85 11.465C124.624 11.703 124.448 11.9977 124.323 12.349C124.199 12.689 124.136 13.063 124.136 13.471C124.136 13.879 124.199 14.2587 124.323 14.61C124.448 14.95 124.624 15.2447 124.85 15.494C125.077 15.732 125.355 15.9247 125.683 16.072C126.012 16.208 126.38 16.276 126.788 16.276ZM134.529 13.471C134.529 13.879 134.591 14.2587 134.716 14.61C134.841 14.95 135.016 15.2447 135.243 15.494C135.47 15.732 135.747 15.9247 136.076 16.072C136.405 16.208 136.773 16.276 137.181 16.276C137.589 16.276 137.957 16.208 138.286 16.072C138.615 15.9247 138.892 15.732 139.119 15.494C139.346 15.2447 139.521 14.95 139.646 14.61C139.771 14.2587 139.833 13.879 139.833 13.471C139.833 13.063 139.771 12.689 139.646 12.349C139.521 11.9977 139.346 11.703 139.119 11.465C138.892 11.2157 138.615 11.023 138.286 10.887C137.957 10.7397 137.589 10.666 137.181 10.666C136.773 10.666 136.405 10.7397 136.076 10.887C135.747 11.023 135.47 11.2157 135.243 11.465C135.016 11.703 134.841 11.9977 134.716 12.349C134.591 12.689 134.529 13.063 134.529 13.471ZM132.897 13.471C132.897 12.8817 133.005 12.332 133.22 11.822C133.447 11.312 133.753 10.8643 134.138 10.479C134.523 10.0937 134.977 9.79333 135.498 9.578C136.019 9.35133 136.58 9.238 137.181 9.238C137.782 9.238 138.343 9.35133 138.864 9.578C139.385 9.79333 139.839 10.0937 140.224 10.479C140.609 10.8643 140.91 11.312 141.125 11.822C141.352 12.332 141.465 12.8817 141.465 13.471C141.465 14.0603 141.352 14.6157 141.125 15.137C140.91 15.647 140.609 16.0947 140.224 16.48C139.839 16.854 139.385 17.1543 138.864 17.381C138.343 17.5963 137.782 17.704 137.181 17.704C136.58 17.704 136.019 17.5963 135.498 17.381C134.977 17.1543 134.523 16.854 134.138 16.48C133.753 16.0947 133.447 15.647 133.22 15.137C133.005 14.6157 132.897 14.0603 132.897 13.471Z" fill="#353B50"/>
<path d="M160 2C154.489 2 150 6.489 150 12C150 17.511 154.489 22 160 22C165.511 22 170 17.511 170 12C170 6.489 165.511 2 160 2ZM160 4C164.43 4 168 7.56988 168 12C168 16.4301 164.43 20 160 20C155.57 20 152 16.4301 152 12C152 7.56988 155.57 4 160 4Z" fill="black"/>
</svg>
