<svg width="25" height="24" viewBox="0 0 25 24" fill="none" xmlns="http://www.w3.org/2000/svg">
<path d="M11.9238 2C11.6798 2 11.4697 2.17697 11.4297 2.41797L11.1465 4.12305C10.6597 4.20672 10.1892 4.33608 9.73633 4.50391L8.63477 3.16797C8.47977 2.97897 8.21005 2.92973 7.99805 3.05273L7.00195 3.62891C6.78995 3.75091 6.6972 4.00833 6.7832 4.23633L7.38867 5.85352C7.01324 6.1664 6.6664 6.51324 6.35352 6.88867L4.73633 6.2832C4.50833 6.1972 4.25091 6.28995 4.12891 6.50195L3.55273 7.49805C3.42973 7.71005 3.47897 7.97977 3.66797 8.13477L5.00391 9.23633C4.83608 9.68918 4.70672 10.1597 4.62305 10.6465L2.91797 10.9297C2.67697 10.9707 2.5 11.1788 2.5 11.4238V12.5762C2.5 12.8202 2.67697 13.0303 2.91797 13.0703L4.62305 13.3535C4.70672 13.8403 4.83608 14.3108 5.00391 14.7637L3.66797 15.8652C3.47897 16.0202 3.43073 16.29 3.55273 16.502L4.12891 17.498C4.25091 17.71 4.50833 17.8028 4.73633 17.7168L6.35352 17.1113C6.6664 17.4868 7.01324 17.8336 7.38867 18.1465L6.7832 19.7637C6.6972 19.9927 6.79095 20.2491 7.00195 20.3711L7.99805 20.9473C8.21005 21.0693 8.47977 21.02 8.63477 20.832L9.73438 19.4961C10.1877 19.6642 10.6591 19.7932 11.1465 19.877L11.4297 21.582C11.4707 21.823 11.6788 22 11.9238 22H13.0762C13.3202 22 13.5303 21.823 13.5703 21.582L13.8535 19.877C14.3403 19.7933 14.8108 19.6639 15.2637 19.4961L16.3652 20.832C16.5202 21.021 16.79 21.0693 17.002 20.9473L17.998 20.3711C18.21 20.2491 18.3028 19.9917 18.2168 19.7637L17.6113 18.1465C17.9868 17.8336 18.3336 17.4868 18.6465 17.1113L20.2637 17.7168C20.4927 17.8028 20.7491 17.709 20.8711 17.498L21.4473 16.502C21.5693 16.29 21.52 16.0202 21.332 15.8652L19.9961 14.7656C20.1642 14.3123 20.2932 13.8409 20.377 13.3535L22.082 13.0703C22.323 13.0293 22.5 12.8212 22.5 12.5762V11.4238C22.5 11.1798 22.323 10.9697 22.082 10.9297L20.377 10.6465C20.2933 10.1597 20.1639 9.68918 19.9961 9.23633L21.332 8.13477C21.521 7.97977 21.5693 7.71005 21.4473 7.49805L20.8711 6.50195C20.7491 6.28995 20.4917 6.1972 20.2637 6.2832L18.6465 6.88867C18.3336 6.51324 17.9868 6.1664 17.6113 5.85352L18.2168 4.23633C18.3028 4.00733 18.209 3.75091 17.998 3.62891L17.002 3.05273C16.79 2.93073 16.5202 2.97997 16.3652 3.16797L15.2656 4.50391C14.8123 4.33576 14.3409 4.20682 13.8535 4.12305L13.5703 2.41797C13.5293 2.17697 13.3212 2 13.0762 2H11.9238ZM11.5 6.08984V9.17383C10.9155 9.38049 10.4093 9.76319 10.0512 10.2693C9.69301 10.7754 9.50047 11.38 9.5 12C9.50005 12.1841 9.51705 12.3678 9.55078 12.5488L6.87891 14.0898C6.63823 13.4388 6.5 12.737 6.5 12C6.5 9.01614 8.65536 6.5638 11.5 6.08984ZM13.5 6.08984C16.3446 6.5638 18.5 9.01614 18.5 12C18.5 12.7379 18.3604 13.4401 18.1191 14.0918L15.4473 12.5469C15.4815 12.3666 15.4992 12.1835 15.5 12C15.4991 11.3803 15.3064 10.7761 14.9483 10.2704C14.5902 9.76474 14.0842 9.38234 13.5 9.17578V6.08984ZM14.4473 14.2773L17.1289 15.8262C16.0304 17.156 14.3686 18 12.5 18C10.6314 18 8.96961 17.156 7.87109 15.8262L10.5508 14.2793C11.0939 14.7441 11.7851 14.9997 12.5 15C13.2144 14.9987 13.9049 14.7424 14.4473 14.2773Z" fill="black"/>
</svg>
